<svg id="visual" viewBox="0 0 2000 1400" width="2000" height="1400" xmlns="http://www.w3.org/2000/svg" xmlns:xlink="http://www.w3.org/1999/xlink" version="1.1"><rect x="0" y="0" width="2000" height="1400" fill="#001220"></rect><defs><linearGradient id="grad1_0" x1="30%" y1="0%" x2="100%" y2="100%"><stop offset="21.42857142857143%" stop-color="#001220" stop-opacity="1"></stop><stop offset="78.57142857142858%" stop-color="#001220" stop-opacity="1"></stop></linearGradient></defs><defs><linearGradient id="grad2_0" x1="0%" y1="0%" x2="70%" y2="100%"><stop offset="21.42857142857143%" stop-color="#001220" stop-opacity="1"></stop><stop offset="78.57142857142858%" stop-color="#001220" stop-opacity="1"></stop></linearGradient></defs><g transform="translate(2000, 0)"><path d="M0 1098.6C-104.5 1000.3 -209 902 -359.3 867.5C-509.7 833 -705.9 862.4 -776.8 776.8C-847.7 691.2 -793.2 490.7 -825.9 342.1C-858.7 193.5 -978.6 96.7 -1098.6 0L0 0Z" fill="#ec6a1f"></path></g><g transform="translate(0, 1400)"><path d="M0 -1098.6C149 -1064.6 298 -1030.7 390.7 -943.3C483.4 -855.9 519.7 -715 630 -630C740.3 -545.1 924.5 -516.1 1015 -420.4C1105.4 -324.7 1102 -162.4 1098.6 0L0 0Z" fill="#ec6a1f"></path></g></svg>