<svg id="visual" viewBox="0 0 2000 200" width="2000" height="200" xmlns="http://www.w3.org/2000/svg" xmlns:xlink="http://www.w3.org/1999/xlink" version="1.1"><rect x="0" y="0" width="2000" height="200" fill="#EC0006"></rect><path d="M0 137L286 122L571 144L857 117L1143 120L1429 140L1714 125L2000 130L2000 201L1714 201L1429 201L1143 201L857 201L571 201L286 201L0 201Z" fill="#ffffff"></path><path d="M0 133L286 152L571 142L857 135L1143 144L1429 151L1714 147L2000 149L2000 201L1714 201L1429 201L1143 201L857 201L571 201L286 201L0 201Z" fill="#fea86f"></path><path d="M0 150L286 148L571 158L857 166L1143 158L1429 156L1714 153L2000 157L2000 201L1714 201L1429 201L1143 201L857 201L571 201L286 201L0 201Z" fill="#f5730a"></path><path d="M0 160L286 173L571 177L857 176L1143 168L1429 168L1714 160L2000 164L2000 201L1714 201L1429 201L1143 201L857 201L571 201L286 201L0 201Z" fill="#fea86f"></path><path d="M0 177L286 181L571 178L857 175L1143 181L1429 176L1714 182L2000 186L2000 201L1714 201L1429 201L1143 201L857 201L571 201L286 201L0 201Z" fill="#ffffff"></path></svg>