<svg id="visual" viewBox="0 0 2000 300" width="2000" height="300" xmlns="http://www.w3.org/2000/svg" xmlns:xlink="http://www.w3.org/1999/xlink" version="1.1"><rect x="0" y="0" width="2000" height="300" fill="#EC0006"></rect><path d="M0 206L286 184L571 216L857 176L1143 180L1429 210L1714 188L2000 195L2000 301L1714 301L1429 301L1143 301L857 301L571 301L286 301L0 301Z" fill="#ffffff"></path><path d="M0 200L286 228L571 213L857 203L1143 216L1429 227L1714 222L2000 224L2000 301L1714 301L1429 301L1143 301L857 301L571 301L286 301L0 301Z" fill="#fea86f"></path><path d="M0 226L286 223L571 238L857 249L1143 237L1429 235L1714 230L2000 235L2000 301L1714 301L1429 301L1143 301L857 301L571 301L286 301L0 301Z" fill="#f5730a"></path><path d="M0 241L286 260L571 266L857 264L1143 253L1429 253L1714 241L2000 247L2000 301L1714 301L1429 301L1143 301L857 301L571 301L286 301L0 301Z" fill="#fea86f"></path><path d="M0 266L286 272L571 268L857 264L1143 273L1429 265L1714 273L2000 279L2000 301L1714 301L1429 301L1143 301L857 301L571 301L286 301L0 301Z" fill="#ffffff"></path></svg>