<svg id="visual" viewBox="0 0 2000 400" width="2000" height="400" xmlns="http://www.w3.org/2000/svg" xmlns:xlink="http://www.w3.org/1999/xlink" version="1.1"><rect x="0" y="0" width="2000" height="400" fill="#D1010D"></rect><path d="M0 261L286 249L571 297L857 233L1143 296L1429 283L1714 280L2000 266L2000 401L1714 401L1429 401L1143 401L857 401L571 401L286 401L0 401Z" fill="#f5730a"></path><path d="M0 309L286 283L571 300L857 311L1143 280L1429 310L1714 263L2000 268L2000 401L1714 401L1429 401L1143 401L857 401L571 401L286 401L0 401Z" fill="#fc9752"></path><path d="M0 328L286 292L571 306L857 299L1143 305L1429 292L1714 332L2000 300L2000 401L1714 401L1429 401L1143 401L857 401L571 401L286 401L0 401Z" fill="#ffb98b"></path><path d="M0 346L286 334L571 329L857 347L1143 351L1429 320L1714 355L2000 337L2000 401L1714 401L1429 401L1143 401L857 401L571 401L286 401L0 401Z" fill="#ffdcc4"></path><path d="M0 379L286 369L571 355L857 361L1143 353L1429 378L1714 379L2000 355L2000 401L1714 401L1429 401L1143 401L857 401L571 401L286 401L0 401Z" fill="#ffffff"></path></svg>