<svg id="visual" viewBox="0 0 1800 400" width="1800" height="400" xmlns="http://www.w3.org/2000/svg" xmlns:xlink="http://www.w3.org/1999/xlink" version="1.1"><rect x="0" y="0" width="1800" height="400" fill="#6D28D9"></rect><path d="M0 223L257 223L257 212L514 212L514 240L771 240L771 201L1029 201L1029 240L1286 240L1286 229L1543 229L1543 207L1800 207L1800 218L1800 401L1800 401L1543 401L1543 401L1286 401L1286 401L1029 401L1029 401L771 401L771 401L514 401L514 401L257 401L257 401L0 401Z" fill="#9900ff"></path><path d="M0 259L257 259L257 237L514 237L514 309L771 309L771 288L1029 288L1029 234L1286 234L1286 296L1543 296L1543 302L1800 302L1800 308L1800 401L1800 401L1543 401L1543 401L1286 401L1286 401L1029 401L1029 401L771 401L771 401L514 401L514 401L257 401L257 401L0 401Z" fill="#c177f8"></path><path d="M0 329L257 329L257 350L514 350L514 298L771 298L771 321L1029 321L1029 317L1286 317L1286 351L1543 351L1543 349L1800 349L1800 349L1800 401L1800 401L1543 401L1543 401L1286 401L1286 401L1029 401L1029 401L771 401L771 401L514 401L514 401L257 401L257 401L0 401Z" fill="#ddc0ef"></path></svg>