<svg id="visual" viewBox="0 0 2000 800" width="2000" height="800" xmlns="http://www.w3.org/2000/svg" xmlns:xlink="http://www.w3.org/1999/xlink" version="1.1"><rect width="2000" height="800" fill="#FFFFFF"></rect><g><g transform="translate(497 131)"><path d="M0 -64.4L37.8 -52.1L61.2 -19.9L61.2 19.9L37.8 52.1L0 64.4L-37.8 52.1L-61.2 19.9L-61.2 -19.9L-37.8 -52.1Z" fill="none" stroke="#001829" stroke-width="2"></path></g><g transform="translate(263 200)"><path d="M0 -42L24.7 -34L39.9 -13L39.9 13L24.7 34L0 42L-24.7 34L-39.9 13L-39.9 -13L-24.7 -34Z" fill="none" stroke="#001829" stroke-width="2"></path></g><g transform="translate(367 425)"><path d="M0 -47L27.6 -38L44.7 -14.5L44.7 14.5L27.6 38L0 47L-27.6 38L-44.7 14.5L-44.7 -14.5L-27.6 -38Z" stroke="#001829" fill="none" stroke-width="2"></path></g><g transform="translate(1534 435)"><path d="M0 -32L18.8 -25.9L30.4 -9.9L30.4 9.9L18.8 25.9L0 32L-18.8 25.9L-30.4 9.9L-30.4 -9.9L-18.8 -25.9Z" stroke="#001829" fill="none" stroke-width="2"></path></g><g transform="translate(1411 170)"><path d="M0 -44L25.9 -35.6L41.8 -13.6L41.8 13.6L25.9 35.6L0 44L-25.9 35.6L-41.8 13.6L-41.8 -13.6L-25.9 -35.6Z" stroke="#001829" fill="none" stroke-width="2"></path></g><g transform="translate(1047 683)"><path d="M0 -51L30 -41.3L48.5 -15.8L48.5 15.8L30 41.3L0 51L-30 41.3L-48.5 15.8L-48.5 -15.8L-30 -41.3Z" stroke="#001829" fill="none" stroke-width="2"></path></g><g transform="translate(1523 697)"><path d="M0 -32L18.8 -25.9L30.4 -9.9L30.4 9.9L18.8 25.9L0 32L-18.8 25.9L-30.4 9.9L-30.4 -9.9L-18.8 -25.9Z" stroke="#001829" fill="none" stroke-width="2"></path></g><g transform="translate(244 477)"><path d="M0 -43L25.3 -34.8L40.9 -13.3L40.9 13.3L25.3 34.8L0 43L-25.3 34.8L-40.9 13.3L-40.9 -13.3L-25.3 -34.8Z" stroke="#001829" fill="none" stroke-width="2"></path></g><g transform="translate(272 12)"><path d="M0 -62L36.4 -50.2L59 -19.2L59 19.2L36.4 50.2L0 62L-36.4 50.2L-59 19.2L-59 -19.2L-36.4 -50.2Z" stroke="#001829" fill="none" stroke-width="2"></path></g><g transform="translate(649 576)"><path d="M0 -40L23.5 -32.4L38 -12.4L38 12.4L23.5 32.4L0 40L-23.5 32.4L-38 12.4L-38 -12.4L-23.5 -32.4Z" stroke="#001829" fill="none" stroke-width="2"></path></g></g></svg>