<svg id="visual" viewBox="0 0 2000 800" width="2000" height="800" xmlns="http://www.w3.org/2000/svg" xmlns:xlink="http://www.w3.org/1999/xlink" version="1.1"><rect width="2000" height="800" fill="#FFFFFF"></rect><g><g transform="translate(1573 404)"><path d="M0 -64.4L37.8 -52.1L61.2 -19.9L61.2 19.9L37.8 52.1L0 64.4L-37.8 52.1L-61.2 19.9L-61.2 -19.9L-37.8 -52.1Z" fill="none" stroke="#001829" stroke-width="2"></path></g><g transform="translate(1113 761)"><path d="M0 -32L18.8 -25.9L30.4 -9.9L30.4 9.9L18.8 25.9L0 32L-18.8 25.9L-30.4 9.9L-30.4 -9.9L-18.8 -25.9Z" fill="none" stroke="#001829" stroke-width="2"></path></g><g transform="translate(832 323)"><path d="M0 -39L22.9 -31.6L37.1 -12.1L37.1 12.1L22.9 31.6L0 39L-22.9 31.6L-37.1 12.1L-37.1 -12.1L-22.9 -31.6Z" stroke="#001829" fill="none" stroke-width="2"></path></g><g transform="translate(1042 649)"><path d="M0 -57L33.5 -46.1L54.2 -17.6L54.2 17.6L33.5 46.1L0 57L-33.5 46.1L-54.2 17.6L-54.2 -17.6L-33.5 -46.1Z" stroke="#001829" fill="none" stroke-width="2"></path></g><g transform="translate(462 274)"><path d="M0 -38L22.3 -30.7L36.1 -11.7L36.1 11.7L22.3 30.7L0 38L-22.3 30.7L-36.1 11.7L-36.1 -11.7L-22.3 -30.7Z" stroke="#001829" fill="none" stroke-width="2"></path></g><g transform="translate(520 396)"><path d="M0 -51L30 -41.3L48.5 -15.8L48.5 15.8L30 41.3L0 51L-30 41.3L-48.5 15.8L-48.5 -15.8L-30 -41.3Z" stroke="#001829" fill="none" stroke-width="2"></path></g><g transform="translate(680 541)"><path d="M0 -37L21.7 -29.9L35.2 -11.4L35.2 11.4L21.7 29.9L0 37L-21.7 29.9L-35.2 11.4L-35.2 -11.4L-21.7 -29.9Z" stroke="#001829" fill="none" stroke-width="2"></path></g><g transform="translate(1935 544)"><path d="M0 -35L20.6 -28.3L33.3 -10.8L33.3 10.8L20.6 28.3L0 35L-20.6 28.3L-33.3 10.8L-33.3 -10.8L-20.6 -28.3Z" stroke="#001829" fill="none" stroke-width="2"></path></g><g transform="translate(28 428)"><path d="M0 -62L36.4 -50.2L59 -19.2L59 19.2L36.4 50.2L0 62L-36.4 50.2L-59 19.2L-59 -19.2L-36.4 -50.2Z" stroke="#001829" fill="none" stroke-width="2"></path></g><g transform="translate(678 81)"><path d="M0 -43L25.3 -34.8L40.9 -13.3L40.9 13.3L25.3 34.8L0 43L-25.3 34.8L-40.9 13.3L-40.9 -13.3L-25.3 -34.8Z" stroke="#001829" fill="none" stroke-width="2"></path></g><g transform="translate(1159 591)"><path d="M0 -37L21.7 -29.9L35.2 -11.4L35.2 11.4L21.7 29.9L0 37L-21.7 29.9L-35.2 11.4L-35.2 -11.4L-21.7 -29.9Z" stroke="#001829" fill="none" stroke-width="2"></path></g><g transform="translate(1800 732)"><path d="M0 -47L27.6 -38L44.7 -14.5L44.7 14.5L27.6 38L0 47L-27.6 38L-44.7 14.5L-44.7 -14.5L-27.6 -38Z" stroke="#001829" fill="none" stroke-width="2"></path></g><g transform="translate(1169 241)"><path d="M0 -63L37 -51L59.9 -19.5L59.9 19.5L37 51L0 63L-37 51L-59.9 19.5L-59.9 -19.5L-37 -51Z" stroke="#001829" fill="none" stroke-width="2"></path></g><g transform="translate(1120 83)"><path d="M0 -39L22.9 -31.6L37.1 -12.1L37.1 12.1L22.9 31.6L0 39L-22.9 31.6L-37.1 12.1L-37.1 -12.1L-22.9 -31.6Z" stroke="#001829" fill="none" stroke-width="2"></path></g><g transform="translate(229 645)"><path d="M0 -38L22.3 -30.7L36.1 -11.7L36.1 11.7L22.3 30.7L0 38L-22.3 30.7L-36.1 11.7L-36.1 -11.7L-22.3 -30.7Z" stroke="#001829" fill="none" stroke-width="2"></path></g><g transform="translate(625 318)"><path d="M0 -35L20.6 -28.3L33.3 -10.8L33.3 10.8L20.6 28.3L0 35L-20.6 28.3L-33.3 10.8L-33.3 -10.8L-20.6 -28.3Z" stroke="#001829" fill="none" stroke-width="2"></path></g><g transform="translate(283 779)"><path d="M0 -34L20 -27.5L32.3 -10.5L32.3 10.5L20 27.5L0 34L-20 27.5L-32.3 10.5L-32.3 -10.5L-20 -27.5Z" stroke="#001829" fill="none" stroke-width="2"></path></g><g transform="translate(308 379)"><path d="M0 -47L27.6 -38L44.7 -14.5L44.7 14.5L27.6 38L0 47L-27.6 38L-44.7 14.5L-44.7 -14.5L-27.6 -38Z" stroke="#001829" fill="none" stroke-width="2"></path></g><g transform="translate(179 10)"><path d="M0 -57L33.5 -46.1L54.2 -17.6L54.2 17.6L33.5 46.1L0 57L-33.5 46.1L-54.2 17.6L-54.2 -17.6L-33.5 -46.1Z" stroke="#001829" fill="none" stroke-width="2"></path></g><g transform="translate(1460 603)"><path d="M0 -58L34.1 -46.9L55.2 -17.9L55.2 17.9L34.1 46.9L0 58L-34.1 46.9L-55.2 17.9L-55.2 -17.9L-34.1 -46.9Z" stroke="#001829" fill="none" stroke-width="2"></path></g><g transform="translate(574 164)"><path d="M0 -52L30.6 -42.1L49.5 -16.1L49.5 16.1L30.6 42.1L0 52L-30.6 42.1L-49.5 16.1L-49.5 -16.1L-30.6 -42.1Z" stroke="#001829" fill="none" stroke-width="2"></path></g><g transform="translate(396 636)"><path d="M0 -62L36.4 -50.2L59 -19.2L59 19.2L36.4 50.2L0 62L-36.4 50.2L-59 19.2L-59 -19.2L-36.4 -50.2Z" stroke="#001829" fill="none" stroke-width="2"></path></g><g transform="translate(1319 606)"><path d="M0 -39L22.9 -31.6L37.1 -12.1L37.1 12.1L22.9 31.6L0 39L-22.9 31.6L-37.1 12.1L-37.1 -12.1L-22.9 -31.6Z" stroke="#001829" fill="none" stroke-width="2"></path></g><g transform="translate(416 775)"><path d="M0 -38L22.3 -30.7L36.1 -11.7L36.1 11.7L22.3 30.7L0 38L-22.3 30.7L-36.1 11.7L-36.1 -11.7L-22.3 -30.7Z" stroke="#001829" fill="none" stroke-width="2"></path></g><g transform="translate(965 212)"><path d="M0 -50L29.4 -40.5L47.6 -15.5L47.6 15.5L29.4 40.5L0 50L-29.4 40.5L-47.6 15.5L-47.6 -15.5L-29.4 -40.5Z" stroke="#001829" fill="none" stroke-width="2"></path></g><g transform="translate(1608 93)"><path d="M0 -43L25.3 -34.8L40.9 -13.3L40.9 13.3L25.3 34.8L0 43L-25.3 34.8L-40.9 13.3L-40.9 -13.3L-25.3 -34.8Z" stroke="#001829" fill="none" stroke-width="2"></path></g><g transform="translate(1711 524)"><path d="M0 -53L31.2 -42.9L50.4 -16.4L50.4 16.4L31.2 42.9L0 53L-31.2 42.9L-50.4 16.4L-50.4 -16.4L-31.2 -42.9Z" stroke="#001829" fill="none" stroke-width="2"></path></g><g transform="translate(1375 415)"><path d="M0 -40L23.5 -32.4L38 -12.4L38 12.4L23.5 32.4L0 40L-23.5 32.4L-38 12.4L-38 -12.4L-23.5 -32.4Z" stroke="#001829" fill="none" stroke-width="2"></path></g><g transform="translate(867 627)"><path d="M0 -35L20.6 -28.3L33.3 -10.8L33.3 10.8L20.6 28.3L0 35L-20.6 28.3L-33.3 10.8L-33.3 -10.8L-20.6 -28.3Z" stroke="#001829" fill="none" stroke-width="2"></path></g><g transform="translate(1318 67)"><path d="M0 -52L30.6 -42.1L49.5 -16.1L49.5 16.1L30.6 42.1L0 52L-30.6 42.1L-49.5 16.1L-49.5 -16.1L-30.6 -42.1Z" stroke="#001829" fill="none" stroke-width="2"></path></g><g transform="translate(1939 88)"><path d="M0 -62L36.4 -50.2L59 -19.2L59 19.2L36.4 50.2L0 62L-36.4 50.2L-59 19.2L-59 -19.2L-36.4 -50.2Z" stroke="#001829" fill="none" stroke-width="2"></path></g><g transform="translate(650 759)"><path d="M0 -58L34.1 -46.9L55.2 -17.9L55.2 17.9L34.1 46.9L0 58L-34.1 46.9L-55.2 17.9L-55.2 -17.9L-34.1 -46.9Z" stroke="#001829" fill="none" stroke-width="2"></path></g><g transform="translate(117 149)"><path d="M0 -38L22.3 -30.7L36.1 -11.7L36.1 11.7L22.3 30.7L0 38L-22.3 30.7L-36.1 11.7L-36.1 -11.7L-22.3 -30.7Z" stroke="#001829" fill="none" stroke-width="2"></path></g><g transform="translate(936 737)"><path d="M0 -53L31.2 -42.9L50.4 -16.4L50.4 16.4L31.2 42.9L0 53L-31.2 42.9L-50.4 16.4L-50.4 -16.4L-31.2 -42.9Z" stroke="#001829" fill="none" stroke-width="2"></path></g><g transform="translate(85 663)"><path d="M0 -34L20 -27.5L32.3 -10.5L32.3 10.5L20 27.5L0 34L-20 27.5L-32.3 10.5L-32.3 -10.5L-20 -27.5Z" stroke="#001829" fill="none" stroke-width="2"></path></g><g transform="translate(1668 271)"><path d="M0 -36L21.2 -29.1L34.2 -11.1L34.2 11.1L21.2 29.1L0 36L-21.2 29.1L-34.2 11.1L-34.2 -11.1L-21.2 -29.1Z" stroke="#001829" fill="none" stroke-width="2"></path></g><g transform="translate(1753 65)"><path d="M0 -60L35.3 -48.5L57.1 -18.5L57.1 18.5L35.3 48.5L0 60L-35.3 48.5L-57.1 18.5L-57.1 -18.5L-35.3 -48.5Z" stroke="#001829" fill="none" stroke-width="2"></path></g><g transform="translate(1044 502)"><path d="M0 -47L27.6 -38L44.7 -14.5L44.7 14.5L27.6 38L0 47L-27.6 38L-44.7 14.5L-44.7 -14.5L-27.6 -38Z" stroke="#001829" fill="none" stroke-width="2"></path></g><g transform="translate(1671 738)"><path d="M0 -52L30.6 -42.1L49.5 -16.1L49.5 16.1L30.6 42.1L0 52L-30.6 42.1L-49.5 16.1L-49.5 -16.1L-30.6 -42.1Z" stroke="#001829" fill="none" stroke-width="2"></path></g><g transform="translate(509 525)"><path d="M0 -61L35.9 -49.4L58 -18.9L58 18.9L35.9 49.4L0 61L-35.9 49.4L-58 18.9L-58 -18.9L-35.9 -49.4Z" stroke="#001829" fill="none" stroke-width="2"></path></g><g transform="translate(984 378)"><path d="M0 -46L27 -37.2L43.7 -14.2L43.7 14.2L27 37.2L0 46L-27 37.2L-43.7 14.2L-43.7 -14.2L-27 -37.2Z" stroke="#001829" fill="none" stroke-width="2"></path></g><g transform="translate(542 677)"><path d="M0 -39L22.9 -31.6L37.1 -12.1L37.1 12.1L22.9 31.6L0 39L-22.9 31.6L-37.1 12.1L-37.1 -12.1L-22.9 -31.6Z" stroke="#001829" fill="none" stroke-width="2"></path></g><g transform="translate(26 245)"><path d="M0 -44L25.9 -35.6L41.8 -13.6L41.8 13.6L25.9 35.6L0 44L-25.9 35.6L-41.8 13.6L-41.8 -13.6L-25.9 -35.6Z" stroke="#001829" fill="none" stroke-width="2"></path></g><g transform="translate(1780 201)"><path d="M0 -34L20 -27.5L32.3 -10.5L32.3 10.5L20 27.5L0 34L-20 27.5L-32.3 10.5L-32.3 -10.5L-20 -27.5Z" stroke="#001829" fill="none" stroke-width="2"></path></g><g transform="translate(295 114)"><path d="M0 -40L23.5 -32.4L38 -12.4L38 12.4L23.5 32.4L0 40L-23.5 32.4L-38 12.4L-38 -12.4L-23.5 -32.4Z" stroke="#001829" fill="none" stroke-width="2"></path></g><g transform="translate(840 467)"><path d="M0 -57L33.5 -46.1L54.2 -17.6L54.2 17.6L33.5 46.1L0 57L-33.5 46.1L-54.2 17.6L-54.2 -17.6L-33.5 -46.1Z" stroke="#001829" fill="none" stroke-width="2"></path></g><g transform="translate(1954 270)"><path d="M0 -41L24.1 -33.2L39 -12.7L39 12.7L24.1 33.2L0 41L-24.1 33.2L-39 12.7L-39 -12.7L-24.1 -33.2Z" stroke="#001829" fill="none" stroke-width="2"></path></g><g transform="translate(750 197)"><path d="M0 -38L22.3 -30.7L36.1 -11.7L36.1 11.7L22.3 30.7L0 38L-22.3 30.7L-36.1 11.7L-36.1 -11.7L-22.3 -30.7Z" stroke="#001829" fill="none" stroke-width="2"></path></g><g transform="translate(1409 254)"><path d="M0 -46L27 -37.2L43.7 -14.2L43.7 14.2L27 37.2L0 46L-27 37.2L-43.7 14.2L-43.7 -14.2L-27 -37.2Z" stroke="#001829" fill="none" stroke-width="2"></path></g><g transform="translate(1829 410)"><path d="M0 -59L34.7 -47.7L56.1 -18.2L56.1 18.2L34.7 47.7L0 59L-34.7 47.7L-56.1 18.2L-56.1 -18.2L-34.7 -47.7Z" stroke="#001829" fill="none" stroke-width="2"></path></g><g transform="translate(1174 432)"><path d="M0 -57L33.5 -46.1L54.2 -17.6L54.2 17.6L33.5 46.1L0 57L-33.5 46.1L-54.2 17.6L-54.2 -17.6L-33.5 -46.1Z" stroke="#001829" fill="none" stroke-width="2"></path></g><g transform="translate(1446 107)"><path d="M0 -45L26.5 -36.4L42.8 -13.9L42.8 13.9L26.5 36.4L0 45L-26.5 36.4L-42.8 13.9L-42.8 -13.9L-26.5 -36.4Z" stroke="#001829" fill="none" stroke-width="2"></path></g><g transform="translate(810 12)"><path d="M0 -35L20.6 -28.3L33.3 -10.8L33.3 10.8L20.6 28.3L0 35L-20.6 28.3L-33.3 10.8L-33.3 -10.8L-20.6 -28.3Z" stroke="#001829" fill="none" stroke-width="2"></path></g><g transform="translate(719 408)"><path d="M0 -52L30.6 -42.1L49.5 -16.1L49.5 16.1L30.6 42.1L0 52L-30.6 42.1L-49.5 16.1L-49.5 -16.1L-30.6 -42.1Z" stroke="#001829" fill="none" stroke-width="2"></path></g><g transform="translate(146 315)"><path d="M0 -46L27 -37.2L43.7 -14.2L43.7 14.2L27 37.2L0 46L-27 37.2L-43.7 14.2L-43.7 -14.2L-27 -37.2Z" stroke="#001829" fill="none" stroke-width="2"></path></g><g transform="translate(1531 713)"><path d="M0 -63L37 -51L59.9 -19.5L59.9 19.5L37 51L0 63L-37 51L-59.9 19.5L-59.9 -19.5L-37 -51Z" stroke="#001829" fill="none" stroke-width="2"></path></g><g transform="translate(959 73)"><path d="M0 -59L34.7 -47.7L56.1 -18.2L56.1 18.2L34.7 47.7L0 59L-34.7 47.7L-56.1 18.2L-56.1 -18.2L-34.7 -47.7Z" stroke="#001829" fill="none" stroke-width="2"></path></g><g transform="translate(130 531)"><path d="M0 -43L25.3 -34.8L40.9 -13.3L40.9 13.3L25.3 34.8L0 43L-25.3 34.8L-40.9 13.3L-40.9 -13.3L-25.3 -34.8Z" stroke="#001829" fill="none" stroke-width="2"></path></g><g transform="translate(451 117)"><path d="M0 -35L20.6 -28.3L33.3 -10.8L33.3 10.8L20.6 28.3L0 35L-20.6 28.3L-33.3 10.8L-33.3 -10.8L-20.6 -28.3Z" stroke="#001829" fill="none" stroke-width="2"></path></g><g transform="translate(21 47)"><path d="M0 -47L27.6 -38L44.7 -14.5L44.7 14.5L27.6 38L0 47L-27.6 38L-44.7 14.5L-44.7 -14.5L-27.6 -38Z" stroke="#001829" fill="none" stroke-width="2"></path></g><g transform="translate(1413 790)"><path d="M0 -58L34.1 -46.9L55.2 -17.9L55.2 17.9L34.1 46.9L0 58L-34.1 46.9L-55.2 17.9L-55.2 -17.9L-34.1 -46.9Z" stroke="#001829" fill="none" stroke-width="2"></path></g><g transform="translate(785 753)"><path d="M0 -38L22.3 -30.7L36.1 -11.7L36.1 11.7L22.3 30.7L0 38L-22.3 30.7L-36.1 11.7L-36.1 -11.7L-22.3 -30.7Z" stroke="#001829" fill="none" stroke-width="2"></path></g><g transform="translate(1969 410)"><path d="M0 -62L36.4 -50.2L59 -19.2L59 19.2L36.4 50.2L0 62L-36.4 50.2L-59 19.2L-59 -19.2L-36.4 -50.2Z" stroke="#001829" fill="none" stroke-width="2"></path></g><g transform="translate(1283 774)"><path d="M0 -41L24.1 -33.2L39 -12.7L39 12.7L24.1 33.2L0 41L-24.1 33.2L-39 12.7L-39 -12.7L-24.1 -33.2Z" stroke="#001829" fill="none" stroke-width="2"></path></g><g transform="translate(1939 687)"><path d="M0 -36L21.2 -29.1L34.2 -11.1L34.2 11.1L21.2 29.1L0 36L-21.2 29.1L-34.2 11.1L-34.2 -11.1L-21.2 -29.1Z" stroke="#001829" fill="none" stroke-width="2"></path></g><g transform="translate(284 246)"><path d="M0 -46L27 -37.2L43.7 -14.2L43.7 14.2L27 37.2L0 46L-27 37.2L-43.7 14.2L-43.7 -14.2L-27 -37.2Z" stroke="#001829" fill="none" stroke-width="2"></path></g><g transform="translate(322 518)"><path d="M0 -57L33.5 -46.1L54.2 -17.6L54.2 17.6L33.5 46.1L0 57L-33.5 46.1L-54.2 17.6L-54.2 -17.6L-33.5 -46.1Z" stroke="#001829" fill="none" stroke-width="2"></path></g><g transform="translate(9 795)"><path d="M0 -38L22.3 -30.7L36.1 -11.7L36.1 11.7L22.3 30.7L0 38L-22.3 30.7L-36.1 11.7L-36.1 -11.7L-22.3 -30.7Z" stroke="#001829" fill="none" stroke-width="2"></path></g><g transform="translate(1531 205)"><path d="M0 -38L22.3 -30.7L36.1 -11.7L36.1 11.7L22.3 30.7L0 38L-22.3 30.7L-36.1 11.7L-36.1 -11.7L-22.3 -30.7Z" stroke="#001829" fill="none" stroke-width="2"></path></g><g transform="translate(1291 195)"><path d="M0 -57L33.5 -46.1L54.2 -17.6L54.2 17.6L33.5 46.1L0 57L-33.5 46.1L-54.2 17.6L-54.2 -17.6L-33.5 -46.1Z" stroke="#001829" fill="none" stroke-width="2"></path></g><g transform="translate(1581 552)"><path d="M0 -44L25.9 -35.6L41.8 -13.6L41.8 13.6L25.9 35.6L0 44L-25.9 35.6L-41.8 13.6L-41.8 -13.6L-25.9 -35.6Z" stroke="#001829" fill="none" stroke-width="2"></path></g><g transform="translate(1277 328)"><path d="M0 -63L37 -51L59.9 -19.5L59.9 19.5L37 51L0 63L-37 51L-59.9 19.5L-59.9 -19.5L-37 -51Z" stroke="#001829" fill="none" stroke-width="2"></path></g><g transform="translate(526 6)"><path d="M0 -42L24.7 -34L39.9 -13L39.9 13L24.7 34L0 42L-24.7 34L-39.9 13L-39.9 -13L-24.7 -34Z" stroke="#001829" fill="none" stroke-width="2"></path></g></g></svg>