<svg id="visual" viewBox="0 0 2000 800" width="2000" height="800" xmlns="http://www.w3.org/2000/svg" xmlns:xlink="http://www.w3.org/1999/xlink" version="1.1"><rect width="2000" height="800" fill="#FFFFFF"></rect><g><g transform="translate(962 288)"><path d="M0 -177.8L104.5 -143.9L169.1 -54.9L169.1 54.9L104.5 143.9L0 177.8L-104.5 143.9L-169.1 54.9L-169.1 -54.9L-104.5 -143.9Z" fill="none" stroke="#001829" stroke-width="2"></path></g><g transform="translate(1577 199)"><path d="M0 -104L61.1 -84.1L98.9 -32.1L98.9 32.1L61.1 84.1L0 104L-61.1 84.1L-98.9 32.1L-98.9 -32.1L-61.1 -84.1Z" fill="none" stroke="#001829" stroke-width="2"></path></g><g transform="translate(1856 486)"><path d="M0 -119L69.9 -96.3L113.2 -36.8L113.2 36.8L69.9 96.3L0 119L-69.9 96.3L-113.2 36.8L-113.2 -36.8L-69.9 -96.3Z" fill="none" stroke="#001829" stroke-width="2"></path></g><g transform="translate(195 123)"><path d="M0 -112L65.8 -90.6L106.5 -34.6L106.5 34.6L65.8 90.6L0 112L-65.8 90.6L-106.5 34.6L-106.5 -34.6L-65.8 -90.6Z" stroke="#001829" fill="none" stroke-width="2"></path></g><g transform="translate(1275 508)"><path d="M0 -175L102.9 -141.6L166.4 -54.1L166.4 54.1L102.9 141.6L0 175L-102.9 141.6L-166.4 54.1L-166.4 -54.1L-102.9 -141.6Z" stroke="#001829" fill="none" stroke-width="2"></path></g><g transform="translate(224 707)"><path d="M0 -93L54.7 -75.2L88.4 -28.7L88.4 28.7L54.7 75.2L0 93L-54.7 75.2L-88.4 28.7L-88.4 -28.7L-54.7 -75.2Z" stroke="#001829" fill="none" stroke-width="2"></path></g><g transform="translate(581 467)"><path d="M0 -128L75.2 -103.6L121.7 -39.6L121.7 39.6L75.2 103.6L0 128L-75.2 103.6L-121.7 39.6L-121.7 -39.6L-75.2 -103.6Z" stroke="#001829" fill="none" stroke-width="2"></path></g><g transform="translate(969 751)"><path d="M0 -104L61.1 -84.1L98.9 -32.1L98.9 32.1L61.1 84.1L0 104L-61.1 84.1L-98.9 32.1L-98.9 -32.1L-61.1 -84.1Z" stroke="#001829" fill="none" stroke-width="2"></path></g><g transform="translate(1959 16)"><path d="M0 -141L82.9 -114.1L134.1 -43.6L134.1 43.6L82.9 114.1L0 141L-82.9 114.1L-134.1 43.6L-134.1 -43.6L-82.9 -114.1Z" stroke="#001829" fill="none" stroke-width="2"></path></g><g transform="translate(660 49)"><path d="M0 -116L68.2 -93.8L110.3 -35.8L110.3 35.8L68.2 93.8L0 116L-68.2 93.8L-110.3 35.8L-110.3 -35.8L-68.2 -93.8Z" stroke="#001829" fill="none" stroke-width="2"></path></g><g transform="translate(1553 773)"><path d="M0 -104L61.1 -84.1L98.9 -32.1L98.9 32.1L61.1 84.1L0 104L-61.1 84.1L-98.9 32.1L-98.9 -32.1L-61.1 -84.1Z" stroke="#001829" fill="none" stroke-width="2"></path></g></g></svg>