<svg id="visual" viewBox="0 0 1800 450" width="1800" height="450" xmlns="http://www.w3.org/2000/svg" xmlns:xlink="http://www.w3.org/1999/xlink" version="1.1"><rect x="0" y="0" width="1800" height="450" fill="#ca228a"></rect><path d="M0 144L42.8 150.7C85.7 157.3 171.3 170.7 257 171.5C342.7 172.3 428.3 160.7 514 150.5C599.7 140.3 685.3 131.7 771.2 128C857 124.3 943 125.7 1028.8 134.3C1114.7 143 1200.3 159 1286 167.3C1371.7 175.7 1457.3 176.3 1543 169.2C1628.7 162 1714.3 147 1757.2 139.5L1800 132L1800 0L1757.2 0C1714.3 0 1628.7 0 1543 0C1457.3 0 1371.7 0 1286 0C1200.3 0 1114.7 0 1028.8 0C943 0 857 0 771.2 0C685.3 0 599.7 0 514 0C428.3 0 342.7 0 257 0C171.3 0 85.7 0 42.8 0L0 0Z" fill="#c79794"></path><path d="M0 151L42.8 148.3C85.7 145.7 171.3 140.3 257 137.3C342.7 134.3 428.3 133.7 514 135.8C599.7 138 685.3 143 771.2 145C857 147 943 146 1028.8 136C1114.7 126 1200.3 107 1286 107.7C1371.7 108.3 1457.3 128.7 1543 133.7C1628.7 138.7 1714.3 128.3 1757.2 123.2L1800 118L1800 0L1757.2 0C1714.3 0 1628.7 0 1543 0C1457.3 0 1371.7 0 1286 0C1200.3 0 1114.7 0 1028.8 0C943 0 857 0 771.2 0C685.3 0 599.7 0 514 0C428.3 0 342.7 0 257 0C171.3 0 85.7 0 42.8 0L0 0Z" fill="#c57684"></path><path d="M0 119L42.8 112.3C85.7 105.7 171.3 92.3 257 91C342.7 89.7 428.3 100.3 514 104C599.7 107.7 685.3 104.3 771.2 97.3C857 90.3 943 79.7 1028.8 74.8C1114.7 70 1200.3 71 1286 76.5C1371.7 82 1457.3 92 1543 93.3C1628.7 94.7 1714.3 87.3 1757.2 83.7L1800 80L1800 0L1757.2 0C1714.3 0 1628.7 0 1543 0C1457.3 0 1371.7 0 1286 0C1200.3 0 1114.7 0 1028.8 0C943 0 857 0 771.2 0C685.3 0 599.7 0 514 0C428.3 0 342.7 0 257 0C171.3 0 85.7 0 42.8 0L0 0Z" fill="#bc5482"></path><path d="M0 84L42.8 84C85.7 84 171.3 84 257 80.5C342.7 77 428.3 70 514 63C599.7 56 685.3 49 771.2 48.7C857 48.3 943 54.7 1028.8 59.3C1114.7 64 1200.3 67 1286 69C1371.7 71 1457.3 72 1543 68.2C1628.7 64.3 1714.3 55.7 1757.2 51.3L1800 47L1800 0L1757.2 0C1714.3 0 1628.7 0 1543 0C1457.3 0 1371.7 0 1286 0C1200.3 0 1114.7 0 1028.8 0C943 0 857 0 771.2 0C685.3 0 599.7 0 514 0C428.3 0 342.7 0 257 0C171.3 0 85.7 0 42.8 0L0 0Z" fill="#a7348a"></path><path d="M0 55L42.8 51C85.7 47 171.3 39 257 35.5C342.7 32 428.3 33 514 33.8C599.7 34.7 685.3 35.3 771.2 37.3C857 39.3 943 42.7 1028.8 44.8C1114.7 47 1200.3 48 1286 44.2C1371.7 40.3 1457.3 31.7 1543 29.3C1628.7 27 1714.3 31 1757.2 33L1800 35L1800 0L1757.2 0C1714.3 0 1628.7 0 1543 0C1457.3 0 1371.7 0 1286 0C1200.3 0 1114.7 0 1028.8 0C943 0 857 0 771.2 0C685.3 0 599.7 0 514 0C428.3 0 342.7 0 257 0C171.3 0 85.7 0 42.8 0L0 0Z" fill="#821c9a"></path></svg>