<svg width="1099" height="764" viewBox="0 0 1099 764" fill="#ECDFC9" xmlns="http://www.w3.org/2000/svg" class="bg-paper-300">
<g id="Frame 1" clip-path="url(#clip0_0_3)">
<rect width="1099" height="764" fill="white" fill-opacity="0.39"/>
<path id="Polygon 1" d="M4.14968 183.657C-47.4971 151.579 -47.497 76.421 4.14975 44.3426L73.4851 1.27772C128.109 -32.6497 198.75 6.6325 198.75 70.9351V157.065C198.75 221.367 128.109 260.65 73.4851 226.722L4.14968 183.657Z" fill="#F59DC8"/>
<path id="Polygon 2" d="M-129.704 676.085C-146.036 674.785 -151.258 653.408 -137.366 644.724L641.533 157.829C642.415 157.277 643.346 156.808 644.314 156.427L987.77 21.1496C998.924 16.7562 1011 24.9784 1011 36.9669V581.957C1011 589.172 1006.45 595.601 999.639 597.995L613.398 733.805C611.158 734.593 608.777 734.903 606.409 734.714L-129.704 676.085Z" fill="#FF8484"/>
</g>
<defs>
<clipPath id="clip0_0_3">
<rect width="1099" height="764" fill="white"/>
</clipPath>
</defs>
</svg>
