<svg width="708" height="462" viewBox="0 0 708 462" fill="none" xmlns="http://www.w3.org/2000/svg">
<g id="Frame 1" clip-path="url(#clip0_0_3)">
<rect width="708" height="462" fill="#D65AC2"/>
<rect id="Rectangle 1" x="493" y="199" width="215" height="263" fill="#FF6363"/>
<rect id="Rectangle 2" x="323" y="317" width="170" height="160" rx="22" fill="#FF6363"/>
<rect id="Rectangle 3" x="207.5" y="451.093" width="115" height="111" transform="rotate(-120 207.5 451.093)" fill="#DF7070"/>
<g id="Rectangle 7">
<rect x="197.283" y="405.63" width="22.567" height="24.1724" transform="rotate(-120 197.283 405.63)" fill="#7970DF"/>
<rect x="197.283" y="405.63" width="22.567" height="24.1724" transform="rotate(-120 197.283 405.63)" fill="#7970DF"/>
<rect x="197.283" y="405.63" width="22.567" height="24.1724" transform="rotate(-120 197.283 405.63)" fill="#7970DF"/>
</g>
<g id="Rectangle 8">
<path d="M225.283 389.63L214 370.086L234.934 358L246.217 377.544L225.283 389.63Z" fill="#7970DF"/>
<path d="M225.283 389.63L214 370.086L234.934 358L246.217 377.544L225.283 389.63Z" fill="#7970DF"/>
<path d="M225.283 389.63L214 370.086L234.934 358L246.217 377.544L225.283 389.63Z" fill="#7970DF"/>
<path d="M234.934 342.5L223.65 322.956L244.584 310.87L255.868 330.414L234.934 342.5Z" fill="#7970DF"/>
<path d="M234.934 342.5L223.65 322.956L244.584 310.87L255.868 330.414L234.934 342.5Z" fill="#7970DF"/>
<path d="M234.934 342.5L223.65 322.956L244.584 310.87L255.868 330.414L234.934 342.5Z" fill="#7970DF"/>
</g>
<g id="Rectangle 9">
<rect x="202.283" y="356.63" width="22.567" height="24.1724" transform="rotate(-120 202.283 356.63)" fill="#7970DF"/>
<rect x="202.283" y="356.63" width="22.567" height="24.1724" transform="rotate(-120 202.283 356.63)" fill="#7970DF"/>
<rect x="202.283" y="356.63" width="22.567" height="24.1724" transform="rotate(-120 202.283 356.63)" fill="#7970DF"/>
</g>
<g id="Rectangle 5">
<rect x="246.283" y="432.63" width="22.567" height="24.1724" transform="rotate(-120 246.283 432.63)" fill="#7970DF"/>
<rect x="246.283" y="432.63" width="22.567" height="24.1724" transform="rotate(-120 246.283 432.63)" fill="#7970DF"/>
<rect x="246.283" y="432.63" width="22.567" height="24.1724" transform="rotate(-120 246.283 432.63)" fill="#7970DF"/>
</g>
<g id="Rectangle 10">
<rect x="274.284" y="412.63" width="22.567" height="24.1724" transform="rotate(-120 274.284 412.63)" fill="#7970DF"/>
<rect x="274.284" y="412.63" width="22.567" height="24.1724" transform="rotate(-120 274.284 412.63)" fill="#7970DF"/>
<rect x="274.284" y="412.63" width="22.567" height="24.1724" transform="rotate(-120 274.284 412.63)" fill="#7970DF"/>
</g>
<g id="Rectangle 11">
<rect x="257.284" y="372.63" width="22.567" height="17.8636" transform="rotate(-120 257.284 372.63)" fill="#7970DF"/>
<rect x="257.284" y="372.63" width="22.567" height="17.8636" transform="rotate(-120 257.284 372.63)" fill="#7970DF"/>
<rect x="257.284" y="372.63" width="22.567" height="17.8636" transform="rotate(-120 257.284 372.63)" fill="#7970DF"/>
</g>
<g id="Rectangle 12">
<rect x="181.283" y="372.63" width="22.567" height="24.1724" transform="rotate(-120 181.283 372.63)" fill="#7970DF"/>
<rect x="181.283" y="372.63" width="22.567" height="24.1724" transform="rotate(-120 181.283 372.63)" fill="#7970DF"/>
<rect x="181.283" y="372.63" width="22.567" height="24.1724" transform="rotate(-120 181.283 372.63)" fill="#7970DF"/>
</g>
<g id="Rectangle 6">
<rect x="220.283" y="448.63" width="22.567" height="24.1724" transform="rotate(-120 220.283 448.63)" fill="#7970DF"/>
<rect x="220.283" y="448.63" width="22.567" height="24.1724" transform="rotate(-120 220.283 448.63)" fill="#7970DF"/>
<rect x="220.283" y="448.63" width="22.567" height="24.1724" transform="rotate(-120 220.283 448.63)" fill="#7970DF"/>
</g>
<rect id="Rectangle 4" x="93.1873" y="484.022" width="115" height="111" transform="rotate(-140 93.1873 484.022)" fill="#DF7070"/>
</g>
<defs>
<clipPath id="clip0_0_3">
<rect width="708" height="462" fill="white"/>
</clipPath>
</defs>
</svg>
