<svg id="visual" viewBox="0 0 1800 600" width="1800" height="600" xmlns="http://www.w3.org/2000/svg" xmlns:xlink="http://www.w3.org/1999/xlink" version="1.1"><rect x="0" y="0" width="1800" height="600" fill="#7126CB"></rect><path d="M0 190L42.8 198.5C85.7 207 171.3 224 257 217.3C342.7 210.7 428.3 180.3 514 166C599.7 151.7 685.3 153.3 771.2 158.7C857 164 943 173 1028.8 183.7C1114.7 194.3 1200.3 206.7 1286 208C1371.7 209.3 1457.3 199.7 1543 202.8C1628.7 206 1714.3 222 1757.2 230L1800 238L1800 0L1757.2 0C1714.3 0 1628.7 0 1543 0C1457.3 0 1371.7 0 1286 0C1200.3 0 1114.7 0 1028.8 0C943 0 857 0 771.2 0C685.3 0 599.7 0 514 0C428.3 0 342.7 0 257 0C171.3 0 85.7 0 42.8 0L0 0Z" fill="#fa7268"></path><path d="M0 194L42.8 190C85.7 186 171.3 178 257 169.3C342.7 160.7 428.3 151.3 514 147.8C599.7 144.3 685.3 146.7 771.2 144.8C857 143 943 137 1028.8 135.3C1114.7 133.7 1200.3 136.3 1286 134.8C1371.7 133.3 1457.3 127.7 1543 132.8C1628.7 138 1714.3 154 1757.2 162L1800 170L1800 0L1757.2 0C1714.3 0 1628.7 0 1543 0C1457.3 0 1371.7 0 1286 0C1200.3 0 1114.7 0 1028.8 0C943 0 857 0 771.2 0C685.3 0 599.7 0 514 0C428.3 0 342.7 0 257 0C171.3 0 85.7 0 42.8 0L0 0Z" fill="#f5616a"></path><path d="M0 146L42.8 139.3C85.7 132.7 171.3 119.3 257 116.5C342.7 113.7 428.3 121.3 514 118.3C599.7 115.3 685.3 101.7 771.2 101.3C857 101 943 114 1028.8 118.8C1114.7 123.7 1200.3 120.3 1286 119.2C1371.7 118 1457.3 119 1543 123.8C1628.7 128.7 1714.3 137.3 1757.2 141.7L1800 146L1800 0L1757.2 0C1714.3 0 1628.7 0 1543 0C1457.3 0 1371.7 0 1286 0C1200.3 0 1114.7 0 1028.8 0C943 0 857 0 771.2 0C685.3 0 599.7 0 514 0C428.3 0 342.7 0 257 0C171.3 0 85.7 0 42.8 0L0 0Z" fill="#ee4f6d"></path><path d="M0 62L42.8 70.2C85.7 78.3 171.3 94.7 257 97.7C342.7 100.7 428.3 90.3 514 81.3C599.7 72.3 685.3 64.7 771.2 65.8C857 67 943 77 1028.8 85.3C1114.7 93.7 1200.3 100.3 1286 98.2C1371.7 96 1457.3 85 1543 83.5C1628.7 82 1714.3 90 1757.2 94L1800 98L1800 0L1757.2 0C1714.3 0 1628.7 0 1543 0C1457.3 0 1371.7 0 1286 0C1200.3 0 1114.7 0 1028.8 0C943 0 857 0 771.2 0C685.3 0 599.7 0 514 0C428.3 0 342.7 0 257 0C171.3 0 85.7 0 42.8 0L0 0Z" fill="#e53c71"></path><path d="M0 70L42.8 64.7C85.7 59.3 171.3 48.7 257 47.8C342.7 47 428.3 56 514 61.7C599.7 67.3 685.3 69.7 771.2 64.7C857 59.7 943 47.3 1028.8 41.2C1114.7 35 1200.3 35 1286 36.3C1371.7 37.7 1457.3 40.3 1543 43.8C1628.7 47.3 1714.3 51.7 1757.2 53.8L1800 56L1800 0L1757.2 0C1714.3 0 1628.7 0 1543 0C1457.3 0 1371.7 0 1286 0C1200.3 0 1114.7 0 1028.8 0C943 0 857 0 771.2 0C685.3 0 599.7 0 514 0C428.3 0 342.7 0 257 0C171.3 0 85.7 0 42.8 0L0 0Z" fill="#db2877"></path></svg>