<svg id="visual" viewBox="0 0 2000 1400" width="2000" height="1400" xmlns="http://www.w3.org/2000/svg" xmlns:xlink="http://www.w3.org/1999/xlink" version="1.1"><rect x="0" y="0" width="2000" height="1400" fill="#EC0006"></rect><path d="M0 509L286 509L286 747L571 747L571 625L857 625L857 567L1143 567L1143 601L1429 601L1429 557L1714 557L1714 753L2000 753L2000 520L2000 0L2000 0L1714 0L1714 0L1429 0L1429 0L1143 0L1143 0L857 0L857 0L571 0L571 0L286 0L286 0L0 0Z" fill="#9900ff"></path><path d="M0 589L286 589L286 433L571 433L571 567L857 567L857 460L1143 460L1143 509L1429 509L1429 411L1714 411L1714 499L2000 499L2000 321L2000 0L2000 0L1714 0L1714 0L1429 0L1429 0L1143 0L1143 0L857 0L857 0L571 0L571 0L286 0L286 0L0 0Z" fill="#d697ff"></path><path d="M0 299L286 299L286 334L571 334L571 193L857 193L857 306L1143 306L1143 327L1429 327L1429 129L1714 129L1714 203L2000 203L2000 142L2000 0L2000 0L1714 0L1714 0L1429 0L1429 0L1143 0L1143 0L857 0L857 0L571 0L571 0L286 0L286 0L0 0Z" fill="#ffffff"></path></svg>