<svg id="visual" viewBox="0 0 1800 1200" width="1800" height="1200" xmlns="http://www.w3.org/2000/svg" xmlns:xlink="http://www.w3.org/1999/xlink" version="1.1"><rect x="0" y="0" width="1800" height="1200" fill="#CCCCCC"></rect><path d="M0 679L257 679L257 693L514 693L514 646L771 646L771 560L1029 560L1029 628L1286 628L1286 507L1543 507L1543 531L1800 531L1800 605L1800 0L1800 0L1543 0L1543 0L1286 0L1286 0L1029 0L1029 0L771 0L771 0L514 0L514 0L257 0L257 0L0 0Z" fill="#6c636e"></path><path d="M0 471L257 471L257 414L514 414L514 460L771 460L771 379L1029 379L1029 462L1286 462L1286 277L1543 277L1543 312L1800 312L1800 306L1800 0L1800 0L1543 0L1543 0L1286 0L1286 0L1029 0L1029 0L771 0L771 0L514 0L514 0L257 0L257 0L0 0Z" fill="#b3aeb4"></path><path d="M0 163L257 163L257 111L514 111L514 202L771 202L771 192L1029 192L1029 213L1286 213L1286 210L1543 210L1543 218L1800 218L1800 154L1800 0L1800 0L1543 0L1543 0L1286 0L1286 0L1029 0L1029 0L771 0L771 0L514 0L514 0L257 0L257 0L0 0Z" fill="#ffffff"></path></svg>