<svg id="visual" viewBox="0 0 2000 800" width="2000" height="800" xmlns="http://www.w3.org/2000/svg" xmlns:xlink="http://www.w3.org/1999/xlink" version="1.1"><rect x="0" y="0" width="2000" height="800" fill="#001220"></rect><defs><linearGradient id="grad1_0" x1="60%" y1="100%" x2="100%" y2="0%"><stop offset="0%" stop-color="#001220" stop-opacity="1"></stop><stop offset="100%" stop-color="#001220" stop-opacity="1"></stop></linearGradient></defs><defs><linearGradient id="grad2_0" x1="0%" y1="100%" x2="40%" y2="0%"><stop offset="0%" stop-color="#001220" stop-opacity="1"></stop><stop offset="100%" stop-color="#001220" stop-opacity="1"></stop></linearGradient></defs><g transform="translate(2000, 800)"><path d="M-720 0C-721 -105.9 -722 -211.9 -665.2 -275.5C-608.3 -339.2 -493.6 -360.6 -425 -425C-356.3 -489.4 -333.7 -596.8 -270.6 -653.2C-207.4 -709.5 -103.7 -714.8 0 -720L0 0Z" fill="#ec6a1f"></path></g><g transform="translate(0, 0)"><path d="M720 0C671 76.5 622.1 153.1 595.9 246.8C569.7 340.6 566.3 451.6 509.1 509.1C451.9 566.6 341 570.6 247.2 596.8C153.4 623.1 76.7 671.5 0 720L0 0Z" fill="#ec6a1f"></path></g></svg>