<svg id="visual" viewBox="0 0 900 600" width="900" height="600" xmlns="http://www.w3.org/2000/svg" xmlns:xlink="http://www.w3.org/1999/xlink" version="1.1"><rect x="0" y="0" width="900" height="600" fill="#ca228a"></rect><path d="M0 192L21.5 201C43 210 86 228 128.8 229.2C171.7 230.3 214.3 214.7 257.2 201.2C300 187.7 343 176.3 385.8 171.5C428.7 166.7 471.3 168.3 514.2 179.8C557 191.3 600 212.7 642.8 223.7C685.7 234.7 728.3 235.3 771.2 225.7C814 216 857 196 878.5 186L900 176L900 0L878.5 0C857 0 814 0 771.2 0C728.3 0 685.7 0 642.8 0C600 0 557 0 514.2 0C471.3 0 428.7 0 385.8 0C343 0 300 0 257.2 0C214.3 0 171.7 0 128.8 0C86 0 43 0 21.5 0L0 0Z" fill="#c79794"></path><path d="M0 202L21.5 198.5C43 195 86 188 128.8 183.8C171.7 179.7 214.3 178.3 257.2 181C300 183.7 343 190.3 385.8 193.2C428.7 196 471.3 195 514.2 181.8C557 168.7 600 143.3 642.8 144.2C685.7 145 728.3 172 771.2 178.7C814 185.3 857 171.7 878.5 164.8L900 158L900 0L878.5 0C857 0 814 0 771.2 0C728.3 0 685.7 0 642.8 0C600 0 557 0 514.2 0C471.3 0 428.7 0 385.8 0C343 0 300 0 257.2 0C214.3 0 171.7 0 128.8 0C86 0 43 0 21.5 0L0 0Z" fill="#c57684"></path><path d="M0 159L21.5 150.2C43 141.3 86 123.7 128.8 121.8C171.7 120 214.3 134 257.2 138.8C300 143.7 343 139.3 385.8 130.2C428.7 121 471.3 107 514.2 100.5C557 94 600 95 642.8 102.2C685.7 109.3 728.3 122.7 771.2 124.5C814 126.3 857 116.7 878.5 111.8L900 107L900 0L878.5 0C857 0 814 0 771.2 0C728.3 0 685.7 0 642.8 0C600 0 557 0 514.2 0C471.3 0 428.7 0 385.8 0C343 0 300 0 257.2 0C214.3 0 171.7 0 128.8 0C86 0 43 0 21.5 0L0 0Z" fill="#bc5482"></path><path d="M0 113L21.5 113C43 113 86 113 128.8 108.2C171.7 103.3 214.3 93.7 257.2 84.2C300 74.7 343 65.3 385.8 64.8C428.7 64.3 471.3 72.7 514.2 79C557 85.3 600 89.7 642.8 92.5C685.7 95.3 728.3 96.7 771.2 91.5C814 86.3 857 74.7 878.5 68.8L900 63L900 0L878.5 0C857 0 814 0 771.2 0C728.3 0 685.7 0 642.8 0C600 0 557 0 514.2 0C471.3 0 428.7 0 385.8 0C343 0 300 0 257.2 0C214.3 0 171.7 0 128.8 0C86 0 43 0 21.5 0L0 0Z" fill="#a7348a"></path><path d="M0 73L21.5 67.8C43 62.7 86 52.3 128.8 47.7C171.7 43 214.3 44 257.2 45C300 46 343 47 385.8 49.8C428.7 52.7 471.3 57.3 514.2 60.3C557 63.3 600 64.7 642.8 59.5C685.7 54.3 728.3 42.7 771.2 39.5C814 36.3 857 41.7 878.5 44.3L900 47L900 0L878.5 0C857 0 814 0 771.2 0C728.3 0 685.7 0 642.8 0C600 0 557 0 514.2 0C471.3 0 428.7 0 385.8 0C343 0 300 0 257.2 0C214.3 0 171.7 0 128.8 0C86 0 43 0 21.5 0L0 0Z" fill="#821c9a"></path></svg>