<svg id="visual" viewBox="0 0 2000 800" width="2000" height="800" xmlns="http://www.w3.org/2000/svg" xmlns:xlink="http://www.w3.org/1999/xlink" version="1.1"><rect x="0" y="0" width="2000" height="800" fill="#0166FF"></rect><path d="M0 417L47.7 439.7C95.3 462.3 190.7 507.7 285.8 517.8C381 528 476 503 571.2 500.7C666.3 498.3 761.7 518.7 857 513.5C952.3 508.3 1047.7 477.7 1143 460.7C1238.3 443.7 1333.7 440.3 1428.8 454.3C1524 468.3 1619 499.7 1714.2 503C1809.3 506.3 1904.7 481.7 1952.3 469.3L2000 457L2000 801L1952.3 801C1904.7 801 1809.3 801 1714.2 801C1619 801 1524 801 1428.8 801C1333.7 801 1238.3 801 1143 801C1047.7 801 952.3 801 857 801C761.7 801 666.3 801 571.2 801C476 801 381 801 285.8 801C190.7 801 95.3 801 47.7 801L0 801Z" fill="#ff0066"></path><path d="M0 591L47.7 592.7C95.3 594.3 190.7 597.7 285.8 579.7C381 561.7 476 522.3 571.2 519.2C666.3 516 761.7 549 857 550C952.3 551 1047.7 520 1143 521.8C1238.3 523.7 1333.7 558.3 1428.8 565.8C1524 573.3 1619 553.7 1714.2 547.5C1809.3 541.3 1904.7 548.7 1952.3 552.3L2000 556L2000 801L1952.3 801C1904.7 801 1809.3 801 1714.2 801C1619 801 1524 801 1428.8 801C1333.7 801 1238.3 801 1143 801C1047.7 801 952.3 801 857 801C761.7 801 666.3 801 571.2 801C476 801 381 801 285.8 801C190.7 801 95.3 801 47.7 801L0 801Z" fill="#ff6a8a"></path><path d="M0 544L47.7 544.3C95.3 544.7 190.7 545.3 285.8 545.5C381 545.7 476 545.3 571.2 560C666.3 574.7 761.7 604.3 857 610.2C952.3 616 1047.7 598 1143 593.2C1238.3 588.3 1333.7 596.7 1428.8 590.3C1524 584 1619 563 1714.2 559C1809.3 555 1904.7 568 1952.3 574.5L2000 581L2000 801L1952.3 801C1904.7 801 1809.3 801 1714.2 801C1619 801 1524 801 1428.8 801C1333.7 801 1238.3 801 1143 801C1047.7 801 952.3 801 857 801C761.7 801 666.3 801 571.2 801C476 801 381 801 285.8 801C190.7 801 95.3 801 47.7 801L0 801Z" fill="#ffa0af"></path><path d="M0 624L47.7 625.5C95.3 627 190.7 630 285.8 640.3C381 650.7 476 668.3 571.2 671.2C666.3 674 761.7 662 857 657.5C952.3 653 1047.7 656 1143 663.2C1238.3 670.3 1333.7 681.7 1428.8 685C1524 688.3 1619 683.7 1714.2 680.8C1809.3 678 1904.7 677 1952.3 676.5L2000 676L2000 801L1952.3 801C1904.7 801 1809.3 801 1714.2 801C1619 801 1524 801 1428.8 801C1333.7 801 1238.3 801 1143 801C1047.7 801 952.3 801 857 801C761.7 801 666.3 801 571.2 801C476 801 381 801 285.8 801C190.7 801 95.3 801 47.7 801L0 801Z" fill="#ffd0d6"></path><path d="M0 704L47.7 702.8C95.3 701.7 190.7 699.3 285.8 700.5C381 701.7 476 706.3 571.2 713C666.3 719.7 761.7 728.3 857 726.7C952.3 725 1047.7 713 1143 708.3C1238.3 703.7 1333.7 706.3 1428.8 715.2C1524 724 1619 739 1714.2 739.2C1809.3 739.3 1904.7 724.7 1952.3 717.3L2000 710L2000 801L1952.3 801C1904.7 801 1809.3 801 1714.2 801C1619 801 1524 801 1428.8 801C1333.7 801 1238.3 801 1143 801C1047.7 801 952.3 801 857 801C761.7 801 666.3 801 571.2 801C476 801 381 801 285.8 801C190.7 801 95.3 801 47.7 801L0 801Z" fill="#ffffff"></path></svg>