<svg id="visual" viewBox="0 0 2000 1000" width="2000" height="1000" xmlns="http://www.w3.org/2000/svg" xmlns:xlink="http://www.w3.org/1999/xlink" version="1.1"><rect x="0" y="0" width="2000" height="1000" fill="#0166FF"></rect><path d="M0 521L47.7 549.5C95.3 578 190.7 635 285.8 647.8C381 660.7 476 629.3 571.2 626.2C666.3 623 761.7 648 857 641.3C952.3 634.7 1047.7 596.3 1143 575.2C1238.3 554 1333.7 550 1428.8 567.7C1524 585.3 1619 624.7 1714.2 629C1809.3 633.3 1904.7 602.7 1952.3 587.3L2000 572L2000 1001L1952.3 1001C1904.7 1001 1809.3 1001 1714.2 1001C1619 1001 1524 1001 1428.8 1001C1333.7 1001 1238.3 1001 1143 1001C1047.7 1001 952.3 1001 857 1001C761.7 1001 666.3 1001 571.2 1001C476 1001 381 1001 285.8 1001C190.7 1001 95.3 1001 47.7 1001L0 1001Z" fill="#ff0066"></path><path d="M0 739L47.7 741.2C95.3 743.3 190.7 747.7 285.8 725.2C381 702.7 476 653.3 571.2 649.3C666.3 645.3 761.7 686.7 857 687.8C952.3 689 1047.7 650 1143 652.2C1238.3 654.3 1333.7 697.7 1428.8 707.2C1524 716.7 1619 692.3 1714.2 684.7C1809.3 677 1904.7 686 1952.3 690.5L2000 695L2000 1001L1952.3 1001C1904.7 1001 1809.3 1001 1714.2 1001C1619 1001 1524 1001 1428.8 1001C1333.7 1001 1238.3 1001 1143 1001C1047.7 1001 952.3 1001 857 1001C761.7 1001 666.3 1001 571.2 1001C476 1001 381 1001 285.8 1001C190.7 1001 95.3 1001 47.7 1001L0 1001Z" fill="#ff6a8a"></path><path d="M0 680L47.7 680.3C95.3 680.7 190.7 681.3 285.8 681.5C381 681.7 476 681.3 571.2 699.8C666.3 718.3 761.7 755.7 857 763C952.3 770.3 1047.7 747.7 1143 741.5C1238.3 735.3 1333.7 745.7 1428.8 737.8C1524 730 1619 704 1714.2 699C1809.3 694 1904.7 710 1952.3 718L2000 726L2000 1001L1952.3 1001C1904.7 1001 1809.3 1001 1714.2 1001C1619 1001 1524 1001 1428.8 1001C1333.7 1001 1238.3 1001 1143 1001C1047.7 1001 952.3 1001 857 1001C761.7 1001 666.3 1001 571.2 1001C476 1001 381 1001 285.8 1001C190.7 1001 95.3 1001 47.7 1001L0 1001Z" fill="#ffa0af"></path><path d="M0 780L47.7 781.8C95.3 783.7 190.7 787.3 285.8 800.2C381 813 476 835 571.2 838.5C666.3 842 761.7 827 857 821.5C952.3 816 1047.7 820 1143 829C1238.3 838 1333.7 852 1428.8 856.2C1524 860.3 1619 854.7 1714.2 851.3C1809.3 848 1904.7 847 1952.3 846.5L2000 846L2000 1001L1952.3 1001C1904.7 1001 1809.3 1001 1714.2 1001C1619 1001 1524 1001 1428.8 1001C1333.7 1001 1238.3 1001 1143 1001C1047.7 1001 952.3 1001 857 1001C761.7 1001 666.3 1001 571.2 1001C476 1001 381 1001 285.8 1001C190.7 1001 95.3 1001 47.7 1001L0 1001Z" fill="#ffd0d6"></path><path d="M0 880L47.7 878.7C95.3 877.3 190.7 874.7 285.8 876.2C381 877.7 476 883.3 571.2 891.5C666.3 899.7 761.7 910.3 857 908.2C952.3 906 1047.7 891 1143 885.3C1238.3 879.7 1333.7 883.3 1428.8 894.5C1524 905.7 1619 924.3 1714.2 924.3C1809.3 924.3 1904.7 905.7 1952.3 896.3L2000 887L2000 1001L1952.3 1001C1904.7 1001 1809.3 1001 1714.2 1001C1619 1001 1524 1001 1428.8 1001C1333.7 1001 1238.3 1001 1143 1001C1047.7 1001 952.3 1001 857 1001C761.7 1001 666.3 1001 571.2 1001C476 1001 381 1001 285.8 1001C190.7 1001 95.3 1001 47.7 1001L0 1001Z" fill="#ffffff"></path></svg>