<svg id="visual" viewBox="0 0 2000 600" width="2000" height="600" xmlns="http://www.w3.org/2000/svg" xmlns:xlink="http://www.w3.org/1999/xlink" version="1.1"><rect x="0" y="0" width="2000" height="600" fill="#0166FF"></rect><path d="M0 312L47.7 329.2C95.3 346.3 190.7 380.7 285.8 388.5C381 396.3 476 377.7 571.2 375.8C666.3 374 761.7 389 857 385C952.3 381 1047.7 358 1143 345.2C1238.3 332.3 1333.7 329.7 1428.8 340.2C1524 350.7 1619 374.3 1714.2 377C1809.3 379.7 1904.7 361.3 1952.3 352.2L2000 343L2000 601L1952.3 601C1904.7 601 1809.3 601 1714.2 601C1619 601 1524 601 1428.8 601C1333.7 601 1238.3 601 1143 601C1047.7 601 952.3 601 857 601C761.7 601 666.3 601 571.2 601C476 601 381 601 285.8 601C190.7 601 95.3 601 47.7 601L0 601Z" fill="#ff0066"></path><path d="M0 443L47.7 444.3C95.3 445.7 190.7 448.3 285.8 434.8C381 421.3 476 391.7 571.2 389.2C666.3 386.7 761.7 411.3 857 412C952.3 412.7 1047.7 389.3 1143 390.7C1238.3 392 1333.7 418 1428.8 423.7C1524 429.3 1619 414.7 1714.2 410.2C1809.3 405.7 1904.7 411.3 1952.3 414.2L2000 417L2000 601L1952.3 601C1904.7 601 1809.3 601 1714.2 601C1619 601 1524 601 1428.8 601C1333.7 601 1238.3 601 1143 601C1047.7 601 952.3 601 857 601C761.7 601 666.3 601 571.2 601C476 601 381 601 285.8 601C190.7 601 95.3 601 47.7 601L0 601Z" fill="#ff6a8a"></path><path d="M0 408L47.7 408.2C95.3 408.3 190.7 408.7 285.8 408.7C381 408.7 476 408.3 571.2 419.3C666.3 430.3 761.7 452.7 857 457.2C952.3 461.7 1047.7 448.3 1143 444.7C1238.3 441 1333.7 447 1428.8 442.2C1524 437.3 1619 421.7 1714.2 418.7C1809.3 415.7 1904.7 425.3 1952.3 430.2L2000 435L2000 601L1952.3 601C1904.7 601 1809.3 601 1714.2 601C1619 601 1524 601 1428.8 601C1333.7 601 1238.3 601 1143 601C1047.7 601 952.3 601 857 601C761.7 601 666.3 601 571.2 601C476 601 381 601 285.8 601C190.7 601 95.3 601 47.7 601L0 601Z" fill="#ffa0af"></path><path d="M0 468L47.7 469C95.3 470 190.7 472 285.8 479.7C381 487.3 476 500.7 571.2 502.8C666.3 505 761.7 496 857 492.7C952.3 489.3 1047.7 491.7 1143 497C1238.3 502.3 1333.7 510.7 1428.8 513.2C1524 515.7 1619 512.3 1714.2 510.3C1809.3 508.3 1904.7 507.7 1952.3 507.3L2000 507L2000 601L1952.3 601C1904.7 601 1809.3 601 1714.2 601C1619 601 1524 601 1428.8 601C1333.7 601 1238.3 601 1143 601C1047.7 601 952.3 601 857 601C761.7 601 666.3 601 571.2 601C476 601 381 601 285.8 601C190.7 601 95.3 601 47.7 601L0 601Z" fill="#ffd0d6"></path><path d="M0 528L47.7 527.2C95.3 526.3 190.7 524.7 285.8 525.5C381 526.3 476 529.7 571.2 534.5C666.3 539.3 761.7 545.7 857 544.3C952.3 543 1047.7 534 1143 530.7C1238.3 527.3 1333.7 529.7 1428.8 536.3C1524 543 1619 554 1714.2 554C1809.3 554 1904.7 543 1952.3 537.5L2000 532L2000 601L1952.3 601C1904.7 601 1809.3 601 1714.2 601C1619 601 1524 601 1428.8 601C1333.7 601 1238.3 601 1143 601C1047.7 601 952.3 601 857 601C761.7 601 666.3 601 571.2 601C476 601 381 601 285.8 601C190.7 601 95.3 601 47.7 601L0 601Z" fill="#ffffff"></path></svg>