<svg id="visual" viewBox="0 0 1000 400" width="1000" height="400" xmlns="http://www.w3.org/2000/svg" xmlns:xlink="http://www.w3.org/1999/xlink" version="1.1"><rect x="0" y="0" width="1000" height="400" fill="#FF6F61"></rect><path d="M544 400L561 400L561 343L576 343L576 286L628 286L628 229L467 229L467 171L618 171L618 114L464 114L464 57L435 57L435 0L1000 0L1000 57L1000 57L1000 114L1000 114L1000 171L1000 171L1000 229L1000 229L1000 286L1000 286L1000 343L1000 343L1000 400L1000 400Z" fill="#009473"></path><path d="M651 400L622 400L622 343L651 343L651 286L689 286L689 229L740 229L740 171L689 171L689 114L607 114L607 57L716 57L716 0L1000 0L1000 57L1000 57L1000 114L1000 114L1000 171L1000 171L1000 229L1000 229L1000 286L1000 286L1000 343L1000 343L1000 400L1000 400Z" fill="#92710a"></path><path d="M910 400L798 400L798 343L908 343L908 286L763 286L763 229L755 229L755 171L795 171L795 114L781 114L781 57L815 57L815 0L1000 0L1000 57L1000 57L1000 114L1000 114L1000 171L1000 171L1000 229L1000 229L1000 286L1000 286L1000 343L1000 343L1000 400L1000 400Z" fill="#c62368"></path></svg>