<svg id="visual" viewBox="0 0 1800 600" width="1800" height="600" xmlns="http://www.w3.org/2000/svg" xmlns:xlink="http://www.w3.org/1999/xlink" version="1.1"><rect x="0" y="0" width="1800" height="600" fill="#FF6F61"></rect><path d="M979 600L1009 600L1009 514L1036 514L1036 429L1129 429L1129 343L839 343L839 257L1112 257L1112 171L834 171L834 86L782 86L782 0L1800 0L1800 86L1800 86L1800 171L1800 171L1800 257L1800 257L1800 343L1800 343L1800 429L1800 429L1800 514L1800 514L1800 600L1800 600Z" fill="#009473"></path><path d="M1170 600L1119 600L1119 514L1171 514L1171 429L1240 429L1240 343L1331 343L1331 257L1240 257L1240 171L1091 171L1091 86L1288 86L1288 0L1800 0L1800 86L1800 86L1800 171L1800 171L1800 257L1800 257L1800 343L1800 343L1800 429L1800 429L1800 514L1800 514L1800 600L1800 600Z" fill="#92710a"></path><path d="M1637 600L1436 600L1436 514L1634 514L1634 429L1372 429L1372 343L1358 343L1358 257L1431 257L1431 171L1405 171L1405 86L1466 86L1466 0L1800 0L1800 86L1800 86L1800 171L1800 171L1800 257L1800 257L1800 343L1800 343L1800 429L1800 429L1800 514L1800 514L1800 600L1800 600Z" fill="#c62368"></path></svg>