<svg id="visual" viewBox="0 0 1200 450" width="1200" height="450" xmlns="http://www.w3.org/2000/svg" xmlns:xlink="http://www.w3.org/1999/xlink" version="1.1"><rect x="0" y="0" width="1200" height="450" fill="#ca228a"></rect><path d="M0 144L28.5 150.7C57 157.3 114 170.7 171.2 171.5C228.3 172.3 285.7 160.7 342.8 150.5C400 140.3 457 131.7 514.2 128C571.3 124.3 628.7 125.7 685.8 134.3C743 143 800 159 857.2 167.3C914.3 175.7 971.7 176.3 1028.8 169.2C1086 162 1143 147 1171.5 139.5L1200 132L1200 0L1171.5 0C1143 0 1086 0 1028.8 0C971.7 0 914.3 0 857.2 0C800 0 743 0 685.8 0C628.7 0 571.3 0 514.2 0C457 0 400 0 342.8 0C285.7 0 228.3 0 171.2 0C114 0 57 0 28.5 0L0 0Z" fill="#c79794"></path><path d="M0 151L28.5 148.3C57 145.7 114 140.3 171.2 137.3C228.3 134.3 285.7 133.7 342.8 135.8C400 138 457 143 514.2 145C571.3 147 628.7 146 685.8 136C743 126 800 107 857.2 107.7C914.3 108.3 971.7 128.7 1028.8 133.7C1086 138.7 1143 128.3 1171.5 123.2L1200 118L1200 0L1171.5 0C1143 0 1086 0 1028.8 0C971.7 0 914.3 0 857.2 0C800 0 743 0 685.8 0C628.7 0 571.3 0 514.2 0C457 0 400 0 342.8 0C285.7 0 228.3 0 171.2 0C114 0 57 0 28.5 0L0 0Z" fill="#c57684"></path><path d="M0 119L28.5 112.3C57 105.7 114 92.3 171.2 91C228.3 89.7 285.7 100.3 342.8 104C400 107.7 457 104.3 514.2 97.3C571.3 90.3 628.7 79.7 685.8 74.8C743 70 800 71 857.2 76.5C914.3 82 971.7 92 1028.8 93.3C1086 94.7 1143 87.3 1171.5 83.7L1200 80L1200 0L1171.5 0C1143 0 1086 0 1028.8 0C971.7 0 914.3 0 857.2 0C800 0 743 0 685.8 0C628.7 0 571.3 0 514.2 0C457 0 400 0 342.8 0C285.7 0 228.3 0 171.2 0C114 0 57 0 28.5 0L0 0Z" fill="#bc5482"></path><path d="M0 84L28.5 84C57 84 114 84 171.2 80.5C228.3 77 285.7 70 342.8 63C400 56 457 49 514.2 48.7C571.3 48.3 628.7 54.7 685.8 59.3C743 64 800 67 857.2 69C914.3 71 971.7 72 1028.8 68.2C1086 64.3 1143 55.7 1171.5 51.3L1200 47L1200 0L1171.5 0C1143 0 1086 0 1028.8 0C971.7 0 914.3 0 857.2 0C800 0 743 0 685.8 0C628.7 0 571.3 0 514.2 0C457 0 400 0 342.8 0C285.7 0 228.3 0 171.2 0C114 0 57 0 28.5 0L0 0Z" fill="#a7348a"></path><path d="M0 55L28.5 51C57 47 114 39 171.2 35.5C228.3 32 285.7 33 342.8 33.8C400 34.7 457 35.3 514.2 37.3C571.3 39.3 628.7 42.7 685.8 44.8C743 47 800 48 857.2 44.2C914.3 40.3 971.7 31.7 1028.8 29.3C1086 27 1143 31 1171.5 33L1200 35L1200 0L1171.5 0C1143 0 1086 0 1028.8 0C971.7 0 914.3 0 857.2 0C800 0 743 0 685.8 0C628.7 0 571.3 0 514.2 0C457 0 400 0 342.8 0C285.7 0 228.3 0 171.2 0C114 0 57 0 28.5 0L0 0Z" fill="#821c9a"></path></svg>