<svg id="visual" viewBox="0 0 2000 700" width="2000" height="700" xmlns="http://www.w3.org/2000/svg" xmlns:xlink="http://www.w3.org/1999/xlink" version="1.1"><path d="M0 36L30.3 39.5C60.7 43 121.3 50 182 55.8C242.7 61.7 303.3 66.3 363.8 67.5C424.3 68.7 484.7 66.3 545.2 60.5C605.7 54.7 666.3 45.3 727 39.5C787.7 33.7 848.3 31.3 909 38.3C969.7 45.3 1030.3 61.7 1091 67.5C1151.7 73.3 1212.3 68.7 1273 64C1333.7 59.3 1394.3 54.7 1454.8 50C1515.3 45.3 1575.7 40.7 1636.2 37.2C1696.7 33.7 1757.3 31.3 1818 33.7C1878.7 36 1939.3 43 1969.7 46.5L2000 50L2000 0L1969.7 0C1939.3 0 1878.7 0 1818 0C1757.3 0 1696.7 0 1636.2 0C1575.7 0 1515.3 0 1454.8 0C1394.3 0 1333.7 0 1273 0C1212.3 0 1151.7 0 1091 0C1030.3 0 969.7 0 909 0C848.3 0 787.7 0 727 0C666.3 0 605.7 0 545.2 0C484.7 0 424.3 0 363.8 0C303.3 0 242.7 0 182 0C121.3 0 60.7 0 30.3 0L0 0Z" fill="#bd0010"></path><path d="M0 211L30.3 213.3C60.7 215.7 121.3 220.3 182 212.2C242.7 204 303.3 183 363.8 181.8C424.3 180.7 484.7 199.3 545.2 191.2C605.7 183 666.3 148 727 155C787.7 162 848.3 211 909 219.2C969.7 227.3 1030.3 194.7 1091 192.3C1151.7 190 1212.3 218 1273 226.2C1333.7 234.3 1394.3 222.7 1454.8 213.3C1515.3 204 1575.7 197 1636.2 180.7C1696.7 164.3 1757.3 138.7 1818 149.2C1878.7 159.7 1939.3 206.3 1969.7 229.7L2000 253L2000 48L1969.7 44.5C1939.3 41 1878.7 34 1818 31.7C1757.3 29.3 1696.7 31.7 1636.2 35.2C1575.7 38.7 1515.3 43.3 1454.8 48C1394.3 52.7 1333.7 57.3 1273 62C1212.3 66.7 1151.7 71.3 1091 65.5C1030.3 59.7 969.7 43.3 909 36.3C848.3 29.3 787.7 31.7 727 37.5C666.3 43.3 605.7 52.7 545.2 58.5C484.7 64.3 424.3 66.7 363.8 65.5C303.3 64.3 242.7 59.7 182 53.8C121.3 48 60.7 41 30.3 37.5L0 34Z" fill="#ec0007"></path><path d="M0 260L30.3 264.7C60.7 269.3 121.3 278.7 182 265.8C242.7 253 303.3 218 363.8 209.8C424.3 201.7 484.7 220.3 545.2 218C605.7 215.7 666.3 192.3 727 200.5C787.7 208.7 848.3 248.3 909 250.7C969.7 253 1030.3 218 1091 221.5C1151.7 225 1212.3 267 1273 278.7C1333.7 290.3 1394.3 271.7 1454.8 255.3C1515.3 239 1575.7 225 1636.2 205.2C1696.7 185.3 1757.3 159.7 1818 177.2C1878.7 194.7 1939.3 255.3 1969.7 285.7L2000 316L2000 251L1969.7 227.7C1939.3 204.3 1878.7 157.7 1818 147.2C1757.3 136.7 1696.7 162.3 1636.2 178.7C1575.7 195 1515.3 202 1454.8 211.3C1394.3 220.7 1333.7 232.3 1273 224.2C1212.3 216 1151.7 188 1091 190.3C1030.3 192.7 969.7 225.3 909 217.2C848.3 209 787.7 160 727 153C666.3 146 605.7 181 545.2 189.2C484.7 197.3 424.3 178.7 363.8 179.8C303.3 181 242.7 202 182 210.2C121.3 218.3 60.7 213.7 30.3 211.3L0 209Z" fill="#ff4332"></path><path d="M0 393L30.3 404.7C60.7 416.3 121.3 439.7 182 438.5C242.7 437.3 303.3 411.7 363.8 405.8C424.3 400 484.7 414 545.2 415.2C605.7 416.3 666.3 404.7 727 408.2C787.7 411.7 848.3 430.3 909 428C969.7 425.7 1030.3 402.3 1091 396.5C1151.7 390.7 1212.3 402.3 1273 416.3C1333.7 430.3 1394.3 446.7 1454.8 449C1515.3 451.3 1575.7 439.7 1636.2 428C1696.7 416.3 1757.3 404.7 1818 405.8C1878.7 407 1939.3 421 1969.7 428L2000 435L2000 314L1969.7 283.7C1939.3 253.3 1878.7 192.7 1818 175.2C1757.3 157.7 1696.7 183.3 1636.2 203.2C1575.7 223 1515.3 237 1454.8 253.3C1394.3 269.7 1333.7 288.3 1273 276.7C1212.3 265 1151.7 223 1091 219.5C1030.3 216 969.7 251 909 248.7C848.3 246.3 787.7 206.7 727 198.5C666.3 190.3 605.7 213.7 545.2 216C484.7 218.3 424.3 199.7 363.8 207.8C303.3 216 242.7 251 182 263.8C121.3 276.7 60.7 267.3 30.3 262.7L0 258Z" fill="#ff6e60"></path><path d="M0 505L30.3 510.8C60.7 516.7 121.3 528.3 182 528.3C242.7 528.3 303.3 516.7 363.8 514.3C424.3 512 484.7 519 545.2 519C605.7 519 666.3 512 727 508.5C787.7 505 848.3 505 909 500.3C969.7 495.7 1030.3 486.3 1091 478.2C1151.7 470 1212.3 463 1273 468.8C1333.7 474.7 1394.3 493.3 1454.8 501.5C1515.3 509.7 1575.7 507.3 1636.2 501.5C1696.7 495.7 1757.3 486.3 1818 493.3C1878.7 500.3 1939.3 523.7 1969.7 535.3L2000 547L2000 433L1969.7 426C1939.3 419 1878.7 405 1818 403.8C1757.3 402.7 1696.7 414.3 1636.2 426C1575.7 437.7 1515.3 449.3 1454.8 447C1394.3 444.7 1333.7 428.3 1273 414.3C1212.3 400.3 1151.7 388.7 1091 394.5C1030.3 400.3 969.7 423.7 909 426C848.3 428.3 787.7 409.7 727 406.2C666.3 402.7 605.7 414.3 545.2 413.2C484.7 412 424.3 398 363.8 403.8C303.3 409.7 242.7 435.3 182 436.5C121.3 437.7 60.7 414.3 30.3 402.7L0 391Z" fill="#ff6e60"></path><path d="M0 533L30.3 541.2C60.7 549.3 121.3 565.7 182 569.2C242.7 572.7 303.3 563.3 363.8 565.7C424.3 568 484.7 582 545.2 583.2C605.7 584.3 666.3 572.7 727 563.3C787.7 554 848.3 547 909 537.7C969.7 528.3 1030.3 516.7 1091 514.3C1151.7 512 1212.3 519 1273 527.2C1333.7 535.3 1394.3 544.7 1454.8 549.3C1515.3 554 1575.7 554 1636.2 551.7C1696.7 549.3 1757.3 544.7 1818 554C1878.7 563.3 1939.3 586.7 1969.7 598.3L2000 610L2000 545L1969.7 533.3C1939.3 521.7 1878.7 498.3 1818 491.3C1757.3 484.3 1696.7 493.7 1636.2 499.5C1575.7 505.3 1515.3 507.7 1454.8 499.5C1394.3 491.3 1333.7 472.7 1273 466.8C1212.3 461 1151.7 468 1091 476.2C1030.3 484.3 969.7 493.7 909 498.3C848.3 503 787.7 503 727 506.5C666.3 510 605.7 517 545.2 517C484.7 517 424.3 510 363.8 512.3C303.3 514.7 242.7 526.3 182 526.3C121.3 526.3 60.7 514.7 30.3 508.8L0 503Z" fill="#ff4332"></path><path d="M0 624L30.3 625.2C60.7 626.3 121.3 628.7 182 634.5C242.7 640.3 303.3 649.7 363.8 650.8C424.3 652 484.7 645 545.2 642.7C605.7 640.3 666.3 642.7 727 640.3C787.7 638 848.3 631 909 627.5C969.7 624 1030.3 624 1091 628.7C1151.7 633.3 1212.3 642.7 1273 645C1333.7 647.3 1394.3 642.7 1454.8 635.7C1515.3 628.7 1575.7 619.3 1636.2 621.7C1696.7 624 1757.3 638 1818 646.2C1878.7 654.3 1939.3 656.7 1969.7 657.8L2000 659L2000 608L1969.7 596.3C1939.3 584.7 1878.7 561.3 1818 552C1757.3 542.7 1696.7 547.3 1636.2 549.7C1575.7 552 1515.3 552 1454.8 547.3C1394.3 542.7 1333.7 533.3 1273 525.2C1212.3 517 1151.7 510 1091 512.3C1030.3 514.7 969.7 526.3 909 535.7C848.3 545 787.7 552 727 561.3C666.3 570.7 605.7 582.3 545.2 581.2C484.7 580 424.3 566 363.8 563.7C303.3 561.3 242.7 570.7 182 567.2C121.3 563.7 60.7 547.3 30.3 539.2L0 531Z" fill="#ec0007"></path><path d="M0 701L30.3 701C60.7 701 121.3 701 182 701C242.7 701 303.3 701 363.8 701C424.3 701 484.7 701 545.2 701C605.7 701 666.3 701 727 701C787.7 701 848.3 701 909 701C969.7 701 1030.3 701 1091 701C1151.7 701 1212.3 701 1273 701C1333.7 701 1394.3 701 1454.8 701C1515.3 701 1575.7 701 1636.2 701C1696.7 701 1757.3 701 1818 701C1878.7 701 1939.3 701 1969.7 701L2000 701L2000 657L1969.7 655.8C1939.3 654.7 1878.7 652.3 1818 644.2C1757.3 636 1696.7 622 1636.2 619.7C1575.7 617.3 1515.3 626.7 1454.8 633.7C1394.3 640.7 1333.7 645.3 1273 643C1212.3 640.7 1151.7 631.3 1091 626.7C1030.3 622 969.7 622 909 625.5C848.3 629 787.7 636 727 638.3C666.3 640.7 605.7 638.3 545.2 640.7C484.7 643 424.3 650 363.8 648.8C303.3 647.7 242.7 638.3 182 632.5C121.3 626.7 60.7 624.3 30.3 623.2L0 622Z" fill="#bd0010"></path></svg>