<svg id="visual" viewBox="0 0 900 450" width="900" height="450" xmlns="http://www.w3.org/2000/svg" xmlns:xlink="http://www.w3.org/1999/xlink" version="1.1"><rect x="0" y="0" width="900" height="450" fill="#ca228a"></rect><path d="M0 144L21.5 150.7C43 157.3 86 170.7 128.8 171.5C171.7 172.3 214.3 160.7 257.2 150.5C300 140.3 343 131.7 385.8 128C428.7 124.3 471.3 125.7 514.2 134.3C557 143 600 159 642.8 167.3C685.7 175.7 728.3 176.3 771.2 169.2C814 162 857 147 878.5 139.5L900 132L900 0L878.5 0C857 0 814 0 771.2 0C728.3 0 685.7 0 642.8 0C600 0 557 0 514.2 0C471.3 0 428.7 0 385.8 0C343 0 300 0 257.2 0C214.3 0 171.7 0 128.8 0C86 0 43 0 21.5 0L0 0Z" fill="#c79794"></path><path d="M0 151L21.5 148.3C43 145.7 86 140.3 128.8 137.3C171.7 134.3 214.3 133.7 257.2 135.8C300 138 343 143 385.8 145C428.7 147 471.3 146 514.2 136C557 126 600 107 642.8 107.7C685.7 108.3 728.3 128.7 771.2 133.7C814 138.7 857 128.3 878.5 123.2L900 118L900 0L878.5 0C857 0 814 0 771.2 0C728.3 0 685.7 0 642.8 0C600 0 557 0 514.2 0C471.3 0 428.7 0 385.8 0C343 0 300 0 257.2 0C214.3 0 171.7 0 128.8 0C86 0 43 0 21.5 0L0 0Z" fill="#c57684"></path><path d="M0 119L21.5 112.3C43 105.7 86 92.3 128.8 91C171.7 89.7 214.3 100.3 257.2 104C300 107.7 343 104.3 385.8 97.3C428.7 90.3 471.3 79.7 514.2 74.8C557 70 600 71 642.8 76.5C685.7 82 728.3 92 771.2 93.3C814 94.7 857 87.3 878.5 83.7L900 80L900 0L878.5 0C857 0 814 0 771.2 0C728.3 0 685.7 0 642.8 0C600 0 557 0 514.2 0C471.3 0 428.7 0 385.8 0C343 0 300 0 257.2 0C214.3 0 171.7 0 128.8 0C86 0 43 0 21.5 0L0 0Z" fill="#bc5482"></path><path d="M0 84L21.5 84C43 84 86 84 128.8 80.5C171.7 77 214.3 70 257.2 63C300 56 343 49 385.8 48.7C428.7 48.3 471.3 54.7 514.2 59.3C557 64 600 67 642.8 69C685.7 71 728.3 72 771.2 68.2C814 64.3 857 55.7 878.5 51.3L900 47L900 0L878.5 0C857 0 814 0 771.2 0C728.3 0 685.7 0 642.8 0C600 0 557 0 514.2 0C471.3 0 428.7 0 385.8 0C343 0 300 0 257.2 0C214.3 0 171.7 0 128.8 0C86 0 43 0 21.5 0L0 0Z" fill="#a7348a"></path><path d="M0 55L21.5 51C43 47 86 39 128.8 35.5C171.7 32 214.3 33 257.2 33.8C300 34.7 343 35.3 385.8 37.3C428.7 39.3 471.3 42.7 514.2 44.8C557 47 600 48 642.8 44.2C685.7 40.3 728.3 31.7 771.2 29.3C814 27 857 31 878.5 33L900 35L900 0L878.5 0C857 0 814 0 771.2 0C728.3 0 685.7 0 642.8 0C600 0 557 0 514.2 0C471.3 0 428.7 0 385.8 0C343 0 300 0 257.2 0C214.3 0 171.7 0 128.8 0C86 0 43 0 21.5 0L0 0Z" fill="#821c9a"></path></svg>