<svg id="visual" viewBox="0 0 2000 1000" width="2000" height="1000" xmlns="http://www.w3.org/2000/svg" xmlns:xlink="http://www.w3.org/1999/xlink" version="1.1"><path d="M0 51L30.3 56C60.7 61 121.3 71 182 79.3C242.7 87.7 303.3 94.3 363.8 96C424.3 97.7 484.7 94.3 545.2 86C605.7 77.7 666.3 64.3 727 56C787.7 47.7 848.3 44.3 909 54.3C969.7 64.3 1030.3 87.7 1091 96C1151.7 104.3 1212.3 97.7 1273 91C1333.7 84.3 1394.3 77.7 1454.8 71C1515.3 64.3 1575.7 57.7 1636.2 52.7C1696.7 47.7 1757.3 44.3 1818 47.7C1878.7 51 1939.3 61 1969.7 66L2000 71L2000 0L1969.7 0C1939.3 0 1878.7 0 1818 0C1757.3 0 1696.7 0 1636.2 0C1575.7 0 1515.3 0 1454.8 0C1394.3 0 1333.7 0 1273 0C1212.3 0 1151.7 0 1091 0C1030.3 0 969.7 0 909 0C848.3 0 787.7 0 727 0C666.3 0 605.7 0 545.2 0C484.7 0 424.3 0 363.8 0C303.3 0 242.7 0 182 0C121.3 0 60.7 0 30.3 0L0 0Z" fill="#bd0010"></path><path d="M0 301L30.3 304.3C60.7 307.7 121.3 314.3 182 302.7C242.7 291 303.3 261 363.8 259.3C424.3 257.7 484.7 284.3 545.2 272.7C605.7 261 666.3 211 727 221C787.7 231 848.3 301 909 312.7C969.7 324.3 1030.3 277.7 1091 274.3C1151.7 271 1212.3 311 1273 322.7C1333.7 334.3 1394.3 317.7 1454.8 304.3C1515.3 291 1575.7 281 1636.2 257.7C1696.7 234.3 1757.3 197.7 1818 212.7C1878.7 227.7 1939.3 294.3 1969.7 327.7L2000 361L2000 69L1969.7 64C1939.3 59 1878.7 49 1818 45.7C1757.3 42.3 1696.7 45.7 1636.2 50.7C1575.7 55.7 1515.3 62.3 1454.8 69C1394.3 75.7 1333.7 82.3 1273 89C1212.3 95.7 1151.7 102.3 1091 94C1030.3 85.7 969.7 62.3 909 52.3C848.3 42.3 787.7 45.7 727 54C666.3 62.3 605.7 75.7 545.2 84C484.7 92.3 424.3 95.7 363.8 94C303.3 92.3 242.7 85.7 182 77.3C121.3 69 60.7 59 30.3 54L0 49Z" fill="#ec0007"></path><path d="M0 371L30.3 377.7C60.7 384.3 121.3 397.7 182 379.3C242.7 361 303.3 311 363.8 299.3C424.3 287.7 484.7 314.3 545.2 311C605.7 307.7 666.3 274.3 727 286C787.7 297.7 848.3 354.3 909 357.7C969.7 361 1030.3 311 1091 316C1151.7 321 1212.3 381 1273 397.7C1333.7 414.3 1394.3 387.7 1454.8 364.3C1515.3 341 1575.7 321 1636.2 292.7C1696.7 264.3 1757.3 227.7 1818 252.7C1878.7 277.7 1939.3 364.3 1969.7 407.7L2000 451L2000 359L1969.7 325.7C1939.3 292.3 1878.7 225.7 1818 210.7C1757.3 195.7 1696.7 232.3 1636.2 255.7C1575.7 279 1515.3 289 1454.8 302.3C1394.3 315.7 1333.7 332.3 1273 320.7C1212.3 309 1151.7 269 1091 272.3C1030.3 275.7 969.7 322.3 909 310.7C848.3 299 787.7 229 727 219C666.3 209 605.7 259 545.2 270.7C484.7 282.3 424.3 255.7 363.8 257.3C303.3 259 242.7 289 182 300.7C121.3 312.3 60.7 305.7 30.3 302.3L0 299Z" fill="#ff4332"></path><path d="M0 561L30.3 577.7C60.7 594.3 121.3 627.7 182 626C242.7 624.3 303.3 587.7 363.8 579.3C424.3 571 484.7 591 545.2 592.7C605.7 594.3 666.3 577.7 727 582.7C787.7 587.7 848.3 614.3 909 611C969.7 607.7 1030.3 574.3 1091 566C1151.7 557.7 1212.3 574.3 1273 594.3C1333.7 614.3 1394.3 637.7 1454.8 641C1515.3 644.3 1575.7 627.7 1636.2 611C1696.7 594.3 1757.3 577.7 1818 579.3C1878.7 581 1939.3 601 1969.7 611L2000 621L2000 449L1969.7 405.7C1939.3 362.3 1878.7 275.7 1818 250.7C1757.3 225.7 1696.7 262.3 1636.2 290.7C1575.7 319 1515.3 339 1454.8 362.3C1394.3 385.7 1333.7 412.3 1273 395.7C1212.3 379 1151.7 319 1091 314C1030.3 309 969.7 359 909 355.7C848.3 352.3 787.7 295.7 727 284C666.3 272.3 605.7 305.7 545.2 309C484.7 312.3 424.3 285.7 363.8 297.3C303.3 309 242.7 359 182 377.3C121.3 395.7 60.7 382.3 30.3 375.7L0 369Z" fill="#ff6e60"></path><path d="M0 721L30.3 729.3C60.7 737.7 121.3 754.3 182 754.3C242.7 754.3 303.3 737.7 363.8 734.3C424.3 731 484.7 741 545.2 741C605.7 741 666.3 731 727 726C787.7 721 848.3 721 909 714.3C969.7 707.7 1030.3 694.3 1091 682.7C1151.7 671 1212.3 661 1273 669.3C1333.7 677.7 1394.3 704.3 1454.8 716C1515.3 727.7 1575.7 724.3 1636.2 716C1696.7 707.7 1757.3 694.3 1818 704.3C1878.7 714.3 1939.3 747.7 1969.7 764.3L2000 781L2000 619L1969.7 609C1939.3 599 1878.7 579 1818 577.3C1757.3 575.7 1696.7 592.3 1636.2 609C1575.7 625.7 1515.3 642.3 1454.8 639C1394.3 635.7 1333.7 612.3 1273 592.3C1212.3 572.3 1151.7 555.7 1091 564C1030.3 572.3 969.7 605.7 909 609C848.3 612.3 787.7 585.7 727 580.7C666.3 575.7 605.7 592.3 545.2 590.7C484.7 589 424.3 569 363.8 577.3C303.3 585.7 242.7 622.3 182 624C121.3 625.7 60.7 592.3 30.3 575.7L0 559Z" fill="#ff6e60"></path><path d="M0 761L30.3 772.7C60.7 784.3 121.3 807.7 182 812.7C242.7 817.7 303.3 804.3 363.8 807.7C424.3 811 484.7 831 545.2 832.7C605.7 834.3 666.3 817.7 727 804.3C787.7 791 848.3 781 909 767.7C969.7 754.3 1030.3 737.7 1091 734.3C1151.7 731 1212.3 741 1273 752.7C1333.7 764.3 1394.3 777.7 1454.8 784.3C1515.3 791 1575.7 791 1636.2 787.7C1696.7 784.3 1757.3 777.7 1818 791C1878.7 804.3 1939.3 837.7 1969.7 854.3L2000 871L2000 779L1969.7 762.3C1939.3 745.7 1878.7 712.3 1818 702.3C1757.3 692.3 1696.7 705.7 1636.2 714C1575.7 722.3 1515.3 725.7 1454.8 714C1394.3 702.3 1333.7 675.7 1273 667.3C1212.3 659 1151.7 669 1091 680.7C1030.3 692.3 969.7 705.7 909 712.3C848.3 719 787.7 719 727 724C666.3 729 605.7 739 545.2 739C484.7 739 424.3 729 363.8 732.3C303.3 735.7 242.7 752.3 182 752.3C121.3 752.3 60.7 735.7 30.3 727.3L0 719Z" fill="#ff4332"></path><path d="M0 891L30.3 892.7C60.7 894.3 121.3 897.7 182 906C242.7 914.3 303.3 927.7 363.8 929.3C424.3 931 484.7 921 545.2 917.7C605.7 914.3 666.3 917.7 727 914.3C787.7 911 848.3 901 909 896C969.7 891 1030.3 891 1091 897.7C1151.7 904.3 1212.3 917.7 1273 921C1333.7 924.3 1394.3 917.7 1454.8 907.7C1515.3 897.7 1575.7 884.3 1636.2 887.7C1696.7 891 1757.3 911 1818 922.7C1878.7 934.3 1939.3 937.7 1969.7 939.3L2000 941L2000 869L1969.7 852.3C1939.3 835.7 1878.7 802.3 1818 789C1757.3 775.7 1696.7 782.3 1636.2 785.7C1575.7 789 1515.3 789 1454.8 782.3C1394.3 775.7 1333.7 762.3 1273 750.7C1212.3 739 1151.7 729 1091 732.3C1030.3 735.7 969.7 752.3 909 765.7C848.3 779 787.7 789 727 802.3C666.3 815.7 605.7 832.3 545.2 830.7C484.7 829 424.3 809 363.8 805.7C303.3 802.3 242.7 815.7 182 810.7C121.3 805.7 60.7 782.3 30.3 770.7L0 759Z" fill="#ec0007"></path><path d="M0 1001L30.3 1001C60.7 1001 121.3 1001 182 1001C242.7 1001 303.3 1001 363.8 1001C424.3 1001 484.7 1001 545.2 1001C605.7 1001 666.3 1001 727 1001C787.7 1001 848.3 1001 909 1001C969.7 1001 1030.3 1001 1091 1001C1151.7 1001 1212.3 1001 1273 1001C1333.7 1001 1394.3 1001 1454.8 1001C1515.3 1001 1575.7 1001 1636.2 1001C1696.7 1001 1757.3 1001 1818 1001C1878.7 1001 1939.3 1001 1969.7 1001L2000 1001L2000 939L1969.7 937.3C1939.3 935.7 1878.7 932.3 1818 920.7C1757.3 909 1696.7 889 1636.2 885.7C1575.7 882.3 1515.3 895.7 1454.8 905.7C1394.3 915.7 1333.7 922.3 1273 919C1212.3 915.7 1151.7 902.3 1091 895.7C1030.3 889 969.7 889 909 894C848.3 899 787.7 909 727 912.3C666.3 915.7 605.7 912.3 545.2 915.7C484.7 919 424.3 929 363.8 927.3C303.3 925.7 242.7 912.3 182 904C121.3 895.7 60.7 892.3 30.3 890.7L0 889Z" fill="#bd0010"></path></svg>