<svg width="1345" height="652" viewBox="0 0 1345 652" fill="none" xmlns="http://www.w3.org/2000/svg">
<g id="Frame 1" clip-path="url(#clip0_0_3)">
<rect width="1345" height="652" fill=""/>
<path id="Rectangle 1" d="M783 369L1196 330V652L736 660L783 369Z" fill="#FF6363"/>
<rect id="Rectangle 2" x="429" y="417" width="356" height="232" rx="22" fill="#FF6363"/>
<rect id="Rectangle 3" x="229.974" y="648.698" width="145.947" height="170.608" transform="rotate(-120 229.974 648.698)" fill="#DF7070"/>
<g id="Rectangle 7">
<rect x="197.284" y="405.63" width="22.567" height="24.1724" transform="rotate(-120 197.284 405.63)" fill="#7970DF"/>
<rect x="197.284" y="405.63" width="22.567" height="24.1724" transform="rotate(-120 197.284 405.63)" fill="#7970DF"/>
<rect x="197.284" y="405.63" width="22.567" height="24.1724" transform="rotate(-120 197.284 405.63)" fill="#7970DF"/>
</g>
<g id="Rectangle 8">
<path d="M225.284 389.63L214 370.086L234.934 358L246.217 377.544L225.284 389.63Z" fill="#7970DF"/>
<path d="M225.284 389.63L214 370.086L234.934 358L246.217 377.544L225.284 389.63Z" fill="#7970DF"/>
<path d="M225.284 389.63L214 370.086L234.934 358L246.217 377.544L225.284 389.63Z" fill="#7970DF"/>
<path d="M234.934 342.5L223.65 322.956L244.584 310.87L255.868 330.414L234.934 342.5Z" fill="#7970DF"/>
<path d="M234.934 342.5L223.65 322.956L244.584 310.87L255.868 330.414L234.934 342.5Z" fill="#7970DF"/>
<path d="M234.934 342.5L223.65 322.956L244.584 310.87L255.868 330.414L234.934 342.5Z" fill="#7970DF"/>
</g>
<g id="Rectangle 9">
<rect x="202.284" y="356.63" width="22.567" height="24.1724" transform="rotate(-120 202.284 356.63)" fill="#7970DF"/>
<rect x="202.284" y="356.63" width="22.567" height="24.1724" transform="rotate(-120 202.284 356.63)" fill="#7970DF"/>
<rect x="202.284" y="356.63" width="22.567" height="24.1724" transform="rotate(-120 202.284 356.63)" fill="#7970DF"/>
</g>
<g id="Rectangle 5">
<rect x="246.284" y="432.63" width="22.567" height="24.1724" transform="rotate(-120 246.284 432.63)" fill="#7970DF"/>
<rect x="246.284" y="432.63" width="22.567" height="24.1724" transform="rotate(-120 246.284 432.63)" fill="#7970DF"/>
<rect x="246.284" y="432.63" width="22.567" height="24.1724" transform="rotate(-120 246.284 432.63)" fill="#7970DF"/>
</g>
<g id="Rectangle 10">
<rect x="274.284" y="412.63" width="22.567" height="24.1724" transform="rotate(-120 274.284 412.63)" fill="#7970DF"/>
<rect x="274.284" y="412.63" width="22.567" height="24.1724" transform="rotate(-120 274.284 412.63)" fill="#7970DF"/>
<rect x="274.284" y="412.63" width="22.567" height="24.1724" transform="rotate(-120 274.284 412.63)" fill="#7970DF"/>
</g>
<g id="Rectangle 11">
<rect x="257.284" y="372.63" width="22.567" height="17.8636" transform="rotate(-120 257.284 372.63)" fill="#7970DF"/>
<rect x="257.284" y="372.63" width="22.567" height="17.8636" transform="rotate(-120 257.284 372.63)" fill="#7970DF"/>
<rect x="257.284" y="372.63" width="22.567" height="17.8636" transform="rotate(-120 257.284 372.63)" fill="#7970DF"/>
</g>
<g id="Rectangle 12">
<rect x="181.284" y="372.63" width="22.567" height="24.1724" transform="rotate(-120 181.284 372.63)" fill="#7970DF"/>
<rect x="181.284" y="372.63" width="22.567" height="24.1724" transform="rotate(-120 181.284 372.63)" fill="#7970DF"/>
<rect x="181.284" y="372.63" width="22.567" height="24.1724" transform="rotate(-120 181.284 372.63)" fill="#7970DF"/>
</g>
<g id="Rectangle 6">
<rect x="220.284" y="448.63" width="22.567" height="24.1724" transform="rotate(-120 220.284 448.63)" fill="#7970DF"/>
<rect x="220.284" y="448.63" width="22.567" height="24.1724" transform="rotate(-120 220.284 448.63)" fill="#7970DF"/>
<rect x="220.284" y="448.63" width="22.567" height="24.1724" transform="rotate(-120 220.284 448.63)" fill="#7970DF"/>
</g>
<rect id="Rectangle 4" x="93.1873" y="484.022" width="115" height="111" transform="rotate(-140 93.1873 484.022)" fill="#DF7070"/>
</g>
<defs>
<clipPath id="clip0_0_3">
<rect width="1345" height="652" fill="white"/>
</clipPath>
</defs>
</svg>
