<svg id="visual" viewBox="0 0 2000 1400" width="2000" height="1400" xmlns="http://www.w3.org/2000/svg" xmlns:xlink="http://www.w3.org/1999/xlink" version="1.1"><path d="M0 281L182 281L182 141L364 141L364 141L545 141L545 155L727 155L727 407L909 407L909 155L1091 155L1091 309L1273 309L1273 141L1455 141L1455 211L1636 211L1636 295L1818 295L1818 239L2000 239L2000 239L2000 0L2000 0L1818 0L1818 0L1636 0L1636 0L1455 0L1455 0L1273 0L1273 0L1091 0L1091 0L909 0L909 0L727 0L727 0L545 0L545 0L364 0L364 0L182 0L182 0L0 0Z" fill="#fa7268"></path><path d="M0 827L182 827L182 421L364 421L364 547L545 547L545 575L727 575L727 785L909 785L909 533L1091 533L1091 659L1273 659L1273 659L1455 659L1455 869L1636 869L1636 659L1818 659L1818 729L2000 729L2000 463L2000 237L2000 237L1818 237L1818 293L1636 293L1636 209L1455 209L1455 139L1273 139L1273 307L1091 307L1091 153L909 153L909 405L727 405L727 153L545 153L545 139L364 139L364 139L182 139L182 279L0 279Z" fill="#ce4063"></path><path d="M0 953L182 953L182 673L364 673L364 771L545 771L545 729L727 729L727 967L909 967L909 673L1091 673L1091 911L1273 911L1273 925L1455 925L1455 981L1636 981L1636 939L1818 939L1818 995L2000 995L2000 757L2000 461L2000 727L1818 727L1818 657L1636 657L1636 867L1455 867L1455 657L1273 657L1273 657L1091 657L1091 531L909 531L909 783L727 783L727 573L545 573L545 545L364 545L364 419L182 419L182 825L0 825Z" fill="#b0235f"></path><path d="M0 1149L182 1149L182 883L364 883L364 939L545 939L545 897L727 897L727 1051L909 1051L909 883L1091 883L1091 1065L1273 1065L1273 1149L1455 1149L1455 1135L1636 1135L1636 1051L1818 1051L1818 1079L2000 1079L2000 841L2000 755L2000 993L1818 993L1818 937L1636 937L1636 979L1455 979L1455 923L1273 923L1273 909L1091 909L1091 671L909 671L909 965L727 965L727 727L545 727L545 769L364 769L364 671L182 671L182 951L0 951Z" fill="#ce4063"></path><path d="M0 1401L182 1401L182 1401L364 1401L364 1401L545 1401L545 1401L727 1401L727 1401L909 1401L909 1401L1091 1401L1091 1401L1273 1401L1273 1401L1455 1401L1455 1401L1636 1401L1636 1401L1818 1401L1818 1401L2000 1401L2000 1401L2000 839L2000 1077L1818 1077L1818 1049L1636 1049L1636 1133L1455 1133L1455 1147L1273 1147L1273 1063L1091 1063L1091 881L909 881L909 1049L727 1049L727 895L545 895L545 937L364 937L364 881L182 881L182 1147L0 1147Z" fill="#fa7268"></path></svg>