<svg id="visual" viewBox="0 0 2000 1000" width="2000" height="1000" xmlns="http://www.w3.org/2000/svg" xmlns:xlink="http://www.w3.org/1999/xlink" version="1.1"><rect x="0" y="0" width="2000" height="1000" fill="#FFFFFF"></rect><path d="M0 420L20.8 455.2C41.7 490.3 83.3 560.7 125 590.8C166.7 621 208.3 611 250 636.5C291.7 662 333.3 723 375 741.2C416.7 759.3 458.3 734.7 500 690.3C541.7 646 583.3 582 625 589.8C666.7 597.7 708.3 677.3 750 696.7C791.7 716 833.3 675 875 649.3C916.7 623.7 958.3 613.3 1000 576.3C1041.7 539.3 1083.3 475.7 1125 504.3C1166.7 533 1208.3 654 1250 709C1291.7 764 1333.3 753 1375 728.7C1416.7 704.3 1458.3 666.7 1500 646.8C1541.7 627 1583.3 625 1625 596C1666.7 567 1708.3 511 1750 531.8C1791.7 552.7 1833.3 650.3 1875 678.5C1916.7 706.7 1958.3 665.3 1979.2 644.7L2000 624L2000 1001L1979.2 1001C1958.3 1001 1916.7 1001 1875 1001C1833.3 1001 1791.7 1001 1750 1001C1708.3 1001 1666.7 1001 1625 1001C1583.3 1001 1541.7 1001 1500 1001C1458.3 1001 1416.7 1001 1375 1001C1333.3 1001 1291.7 1001 1250 1001C1208.3 1001 1166.7 1001 1125 1001C1083.3 1001 1041.7 1001 1000 1001C958.3 1001 916.7 1001 875 1001C833.3 1001 791.7 1001 750 1001C708.3 1001 666.7 1001 625 1001C583.3 1001 541.7 1001 500 1001C458.3 1001 416.7 1001 375 1001C333.3 1001 291.7 1001 250 1001C208.3 1001 166.7 1001 125 1001C83.3 1001 41.7 1001 20.8 1001L0 1001Z" fill="#0066FF" stroke-linecap="round" stroke-linejoin="miter"></path></svg>