<svg id="visual" viewBox="0 0 2000 600" width="2000" height="600" xmlns="http://www.w3.org/2000/svg" xmlns:xlink="http://www.w3.org/1999/xlink" version="1.1"><rect x="0" y="0" width="2000" height="600" fill="#FFFFFF"></rect><path d="M0 252L20.8 273C41.7 294 83.3 336 125 354C166.7 372 208.3 366 250 381.3C291.7 396.7 333.3 433.3 375 444.3C416.7 455.3 458.3 440.7 500 414C541.7 387.3 583.3 348.7 625 353.3C666.7 358 708.3 406 750 417.7C791.7 429.3 833.3 404.7 875 389.2C916.7 373.7 958.3 367.3 1000 345.2C1041.7 323 1083.3 285 1125 302.2C1166.7 319.3 1208.3 391.7 1250 424.7C1291.7 457.7 1333.3 451.3 1375 436.8C1416.7 422.3 1458.3 399.7 1500 387.7C1541.7 375.7 1583.3 374.3 1625 357C1666.7 339.7 1708.3 306.3 1750 318.8C1791.7 331.3 1833.3 389.7 1875 406.5C1916.7 423.3 1958.3 398.7 1979.2 386.3L2000 374L2000 601L1979.2 601C1958.3 601 1916.7 601 1875 601C1833.3 601 1791.7 601 1750 601C1708.3 601 1666.7 601 1625 601C1583.3 601 1541.7 601 1500 601C1458.3 601 1416.7 601 1375 601C1333.3 601 1291.7 601 1250 601C1208.3 601 1166.7 601 1125 601C1083.3 601 1041.7 601 1000 601C958.3 601 916.7 601 875 601C833.3 601 791.7 601 750 601C708.3 601 666.7 601 625 601C583.3 601 541.7 601 500 601C458.3 601 416.7 601 375 601C333.3 601 291.7 601 250 601C208.3 601 166.7 601 125 601C83.3 601 41.7 601 20.8 601L0 601Z" fill="#0066FF" stroke-linecap="round" stroke-linejoin="miter"></path></svg>