<svg id="visual" viewBox="0 0 2000 1600" width="2000" height="1600" xmlns="http://www.w3.org/2000/svg" xmlns:xlink="http://www.w3.org/1999/xlink" version="1.1"><path d="M0 225L182 225L182 257L364 257L364 97L545 97L545 145L727 145L727 193L909 193L909 241L1091 241L1091 225L1273 225L1273 209L1455 209L1455 97L1636 97L1636 273L1818 273L1818 177L2000 177L2000 273L2000 0L2000 0L1818 0L1818 0L1636 0L1636 0L1455 0L1455 0L1273 0L1273 0L1091 0L1091 0L909 0L909 0L727 0L727 0L545 0L545 0L364 0L364 0L182 0L182 0L0 0Z" fill="#ffffff"></path><path d="M0 817L182 817L182 593L364 593L364 801L545 801L545 449L727 449L727 705L909 705L909 817L1091 817L1091 801L1273 801L1273 641L1455 641L1455 465L1636 465L1636 769L1818 769L1818 737L2000 737L2000 689L2000 271L2000 175L1818 175L1818 271L1636 271L1636 95L1455 95L1455 207L1273 207L1273 223L1091 223L1091 239L909 239L909 191L727 191L727 143L545 143L545 95L364 95L364 255L182 255L182 223L0 223Z" fill="#947581"></path><path d="M0 977L182 977L182 897L364 897L364 961L545 961L545 769L727 769L727 913L909 913L909 1105L1091 1105L1091 913L1273 913L1273 833L1455 833L1455 593L1636 593L1636 1025L1818 1025L1818 1073L2000 1073L2000 897L2000 687L2000 735L1818 735L1818 767L1636 767L1636 463L1455 463L1455 639L1273 639L1273 799L1091 799L1091 815L909 815L909 703L727 703L727 447L545 447L545 799L364 799L364 591L182 591L182 815L0 815Z" fill="#572a3e"></path><path d="M0 1377L182 1377L182 1041L364 1041L364 1137L545 1137L545 1137L727 1137L727 1249L909 1249L909 1345L1091 1345L1091 1153L1273 1153L1273 1233L1455 1233L1455 1025L1636 1025L1636 1185L1818 1185L1818 1409L2000 1409L2000 1153L2000 895L2000 1071L1818 1071L1818 1023L1636 1023L1636 591L1455 591L1455 831L1273 831L1273 911L1091 911L1091 1103L909 1103L909 911L727 911L727 767L545 767L545 959L364 959L364 895L182 895L182 975L0 975Z" fill="#947581"></path><path d="M0 1601L182 1601L182 1601L364 1601L364 1601L545 1601L545 1601L727 1601L727 1601L909 1601L909 1601L1091 1601L1091 1601L1273 1601L1273 1601L1455 1601L1455 1601L1636 1601L1636 1601L1818 1601L1818 1601L2000 1601L2000 1601L2000 1151L2000 1407L1818 1407L1818 1183L1636 1183L1636 1023L1455 1023L1455 1231L1273 1231L1273 1151L1091 1151L1091 1343L909 1343L909 1247L727 1247L727 1135L545 1135L545 1135L364 1135L364 1039L182 1039L182 1375L0 1375Z" fill="#ffffff"></path></svg>